<svg width="70" height="70" viewBox="0 0 70 70" fill="none" xmlns="http://www.w3.org/2000/svg">
<path d="M64.1667 34.9999C64.1667 51.1072 51.1073 64.1666 35 64.1666C18.8927 64.1666 5.83334 51.1072 5.83334 34.9999C5.83334 18.8926 18.8927 5.83325 35 5.83325C51.1073 5.83325 64.1667 18.8926 64.1667 34.9999Z" fill="url(#paint0_linear_311_169)"/>
<path opacity="0.05" d="M48.405 42.2187L41.1877 34.9999L48.4065 27.7812C49.5454 26.6422 49.5454 24.796 48.4065 23.657L46.3444 21.5949C45.2054 20.456 43.3592 20.456 42.2202 21.5949L35 28.8122L27.7813 21.5935C26.6423 20.4545 24.796 20.4545 23.6571 21.5935L21.595 23.6556C20.456 24.7945 20.456 26.6408 21.595 27.7797L28.8138 34.9985L21.595 42.2172C20.456 43.3562 20.456 45.2024 21.595 46.3414L23.6571 48.4035C24.796 49.5424 26.6423 49.5424 27.7813 48.4035L35 41.1847L42.2188 48.4035C43.3577 49.5424 45.204 49.5424 46.3429 48.4035L48.405 46.3414C49.544 45.2039 49.544 43.3576 48.405 42.2187Z" fill="black"/>
<path opacity="0.07" d="M47.8902 42.7334L40.1567 34.9999L47.8902 27.2664C48.7448 26.4118 48.7448 25.0264 47.8902 24.1732L45.8281 22.1111C44.9735 21.2566 43.5881 21.2566 42.735 22.1111L35 29.8432L27.2664 22.1097C26.4119 21.2551 25.0264 21.2551 24.1733 22.1097L22.1112 24.1718C21.2567 25.0264 21.2567 26.4118 22.1112 27.2649L29.8433 34.9999L22.1098 42.7334C21.2552 43.588 21.2552 44.9734 22.1098 45.8266L24.1719 47.8886C25.0264 48.7432 26.4119 48.7432 27.265 47.8886L35 40.1566L42.7335 47.8901C43.5881 48.7447 44.9735 48.7447 45.8267 47.8901L47.8887 45.828C48.7448 44.9734 48.7448 43.588 47.8902 42.7334Z" fill="black"/>
<path d="M45.3119 22.6261L47.374 24.6882C47.9442 25.2584 47.9442 26.1816 47.374 26.7503L26.7502 47.3741C26.18 47.9443 25.2569 47.9443 24.6881 47.3741L22.6261 45.312C22.0558 44.7418 22.0558 43.8186 22.6261 43.2499L43.2498 22.6261C43.8186 22.0559 44.7431 22.0559 45.3119 22.6261Z" fill="white"/>
<path d="M47.374 45.312L45.3119 47.3741C44.7417 47.9443 43.8186 47.9443 43.2498 47.3741L22.6261 26.7503C22.0558 26.1801 22.0558 25.257 22.6261 24.6882L24.6881 22.6261C25.2583 22.0559 26.1815 22.0559 26.7502 22.6261L47.374 43.2499C47.9442 43.8186 47.9442 44.7432 47.374 45.312Z" fill="white"/>
<defs>
<linearGradient id="paint0_linear_311_169" x1="14.3763" y1="14.3762" x2="55.6238" y2="55.6237" gradientUnits="userSpaceOnUse">
<stop stop-color="#F44F5A"/>
<stop offset="0.443" stop-color="#EE3D4A"/>
<stop offset="1" stop-color="#E52030"/>
</linearGradient>
</defs>
</svg>
