<svg width="350" height="268" viewBox="0 0 350 268" fill="none" xmlns="http://www.w3.org/2000/svg">
<path d="M178.617 267.947C272.745 267.947 349.05 257.708 349.05 245.077C349.05 232.446 272.745 222.207 178.617 222.207C84.4885 222.207 8.18262 232.446 8.18262 245.077C8.18262 257.708 84.4885 267.947 178.617 267.947Z" fill="#786AB5"/>
<path d="M258.05 234.694L263.574 235.876L263.228 162.053L258.978 163.948L258.05 234.694Z" fill="#66192D"/>
<path d="M241.726 238.8C241.726 238.8 270.976 239.353 280.728 239.432C281.805 239.441 282.578 237.881 282.578 236.747C282.578 235.614 281.004 234.267 279.928 234.273C270.377 234.326 241.726 234.694 241.726 234.694C240.65 234.694 239.776 235.614 239.776 236.747C239.776 237.881 240.649 238.8 241.726 238.8Z" fill="#66192D"/>
<path d="M281.178 242.485C280.821 240.232 278.947 238.8 276.778 238.8C274.609 238.8 272.378 240.306 272.378 242.59C272.378 245.432 275.109 247.432 277.278 247.432C279.447 247.433 281.628 245.327 281.178 242.485Z" fill="#66192D"/>
<path d="M249.978 242.485C249.622 240.232 247.747 238.8 245.579 238.8C243.41 238.8 241.179 240.306 241.179 242.59C241.179 245.432 243.91 247.432 246.079 247.432C248.247 247.433 250.428 245.327 249.978 242.485Z" fill="#66192D"/>
<path d="M275.491 168.251C275.491 168.251 276.797 176.261 263.36 178.845C249.923 181.429 244.138 168.251 244.138 168.251H275.491Z" fill="#66192D"/>
<path d="M223.372 171.366C230.118 174.603 288.471 172.086 293.737 171.486C293.851 171.486 293.965 171.456 294.079 171.456C297.921 170.857 300.597 167.081 300.199 163.035C299.544 156.652 296.612 138.293 297.169 123.215C297.983 101.222 303.649 79.627 294.483 78.8179C293.51 78.736 282.578 78.716 282.578 107.406C282.578 122.525 279.825 139.256 280.48 145.639C280.878 149.715 236.836 160.189 217.821 159.349C213.694 162.676 213.665 166.721 223.372 171.366Z" fill="#F22525"/>
<path d="M168.453 232.615C168.453 232.615 168.543 238.249 164.989 239.997C161.435 241.744 151.01 243.639 155.071 247.085C157.401 249.062 167.939 247.253 170.929 247.121C173.92 246.989 176.782 248.237 178.92 246.032C181.272 243.606 178.368 232.177 178.368 232.177C178.368 232.177 175.844 233.706 173.521 233.745C170.173 233.801 168.453 232.615 168.453 232.615Z" fill="#4F1A44"/>
<path d="M183.221 232.615C183.221 232.615 183.311 238.249 179.757 239.997C176.202 241.744 165.778 243.639 169.838 247.085C172.168 249.062 182.706 247.253 185.697 247.121C188.687 246.989 191.549 248.237 193.688 246.032C196.04 243.606 193.136 232.177 193.136 232.177C193.136 232.177 190.612 233.706 188.288 233.745C184.941 233.801 183.221 232.615 183.221 232.615Z" fill="#552748"/>
<path d="M171.426 150.265C176.275 127.563 229.851 121.626 242.4 120.853C262.865 119.594 278.717 128.945 278.717 128.945C289.266 168.254 249.638 162.053 213.801 162.053C207.976 162.053 196.033 163.986 192.55 168.254C192.55 168.254 168.703 163.012 171.426 150.265Z" fill="#FF8548"/>
<path d="M196.499 197.136C191.739 214.129 185.85 234.524 179.048 236.036C165.809 238.979 161.197 228.84 163.424 212.792C164.251 206.827 168.825 178.014 171.029 168.251C173.918 155.446 200 184.639 196.499 197.136Z" fill="#FF8548"/>
<path d="M202.122 162.053C197.141 163.558 205.488 228.288 194.944 234.464C183.121 241.389 175.872 233.134 173.5 217.109C171.463 203.342 166.993 156.233 172.332 148.279C180.694 135.82 189.598 139.729 194.214 136.945C204.259 130.887 211.775 159.135 202.122 162.053Z" fill="#FF8548"/>
<path d="M267.819 51.3718C262.304 44.2654 250.445 37.45 239.94 42.4135C225.056 49.4458 218.853 88.0956 217.091 119.502C217.091 119.502 240.425 143.154 279.798 147.675C285.854 148.37 282.979 128.032 281.547 117.306C278.393 93.6779 279.116 65.9288 267.819 51.3718Z" fill="#553E93"/>
<path d="M121.488 250.417H145.161C146.908 250.417 148.324 248.926 148.324 247.088C148.324 245.249 146.908 243.758 145.161 243.758H121.488C116.98 243.758 112.785 241.627 109.98 237.912C107.179 234.203 106.152 229.431 107.16 224.814L128.92 132.562C129.341 130.777 128.308 128.971 126.613 128.528C124.919 128.084 123.203 129.172 122.782 130.957L101.016 223.236C101.012 223.253 101.008 223.27 101.004 223.287C99.5497 229.9 101.017 236.741 105.029 242.055C109.041 247.369 115.04 250.417 121.488 250.417Z" fill="#66192D"/>
<path d="M160.283 136.455C160.283 136.455 140.094 147.061 121.728 149.388C103.363 151.716 106.13 130.411 106.13 130.411L160.283 136.455Z" fill="#66192D"/>
<path d="M150.663 137.796C196.766 137.796 234.139 130.626 234.139 121.783C234.139 112.939 196.766 105.77 150.663 105.77C104.561 105.77 67.1875 112.939 67.1875 121.783C67.1875 130.626 104.561 137.796 150.663 137.796Z" fill="#F7A41E"/>
<path d="M234.139 114.398H67.1875V121.783H234.139V114.398Z" fill="#F7A41E"/>
<path d="M150.663 130.411C196.766 130.411 234.139 123.242 234.139 114.398C234.139 105.554 196.766 98.385 150.663 98.385C104.561 98.385 67.1875 105.554 67.1875 114.398C67.1875 123.242 104.561 130.411 150.663 130.411Z" fill="#FFBA41"/>
<path d="M210.435 125.945C210.456 125.945 210.478 125.943 210.5 125.939C217.533 124.555 223.156 122.958 227.213 121.194C227.392 121.116 227.476 120.901 227.403 120.713C227.329 120.524 227.124 120.435 226.945 120.513C222.933 122.258 217.357 123.84 210.371 125.214C210.181 125.251 210.056 125.444 210.091 125.644C210.123 125.821 210.27 125.945 210.435 125.945Z" fill="#F22525"/>
<path d="M81.3438 123.691C81.4961 123.691 81.6364 123.585 81.6803 123.424C81.7332 123.228 81.6257 123.024 81.4397 122.968C81.3586 122.943 73.29 120.5 70.2721 118.284C70.1132 118.167 69.8951 118.208 69.7848 118.375C69.674 118.542 69.7129 118.772 69.8715 118.888C72.9852 121.175 80.9113 123.576 81.2472 123.677C81.2795 123.687 81.3119 123.691 81.3438 123.691Z" fill="#F22525"/>
<path d="M238.97 44.8256C241.56 45.0955 249.737 40.8325 249.737 40.8325C248.485 40.2026 247.337 38.2019 246.882 37.0635L244.748 31.4603L244.008 29.572L239.738 18.4249L240.194 29.8421L240.479 36.6747L240.564 38.8623C240.621 40.3308 239.734 41.9916 238.822 43.37C238.652 43.5796 238.019 44.838 238.97 44.8256Z" fill="#F18C7E"/>
<path d="M240.482 36.6842C240.482 36.6842 244.147 35.6218 245.41 33.2007L240.046 34.9268L240.482 36.6842Z" fill="#66192D"/>
<path d="M230.747 14.9044C230.747 14.9044 230.282 17.7308 231.244 21.1384C232.205 24.546 234.877 15.7259 234.877 15.7259L230.747 14.9044Z" fill="#66192D"/>
<path d="M250.242 23.1236C250.545 16.3444 246.461 10.6347 241.121 10.3707C235.78 10.1068 231.206 15.3885 230.904 22.1677C230.602 28.9469 234.686 34.6566 240.026 34.9206C245.366 35.1845 249.94 29.9028 250.242 23.1236Z" fill="#F18C7E"/>
<path d="M250.225 19.6035L245.516 19.5052C244.48 19.4836 243.495 18.986 242.866 18.1194C241.784 16.6275 240.569 15.9194 236.227 16.4759C230.729 17.1803 226.812 14.04 225.974 11.0544C225.119 8.00707 227.774 5.65614 230.662 6.89039C233.55 8.12464 232.072 4.60363 234.706 3.98386C239.626 2.82553 240.88 6.78319 244.945 6.29225C250.275 5.64856 260.187 9.07936 256.436 19.3831L250.225 19.6035Z" fill="#66192D"/>
<path d="M240.046 22.1838C239.993 22.1548 239.954 22.1012 239.943 22.0345C239.925 21.9222 239.997 21.8157 240.104 21.7966C240.166 21.7856 241.601 21.3827 242.465 22.9483C242.519 23.0469 242.492 23.173 242.399 23.2321C242.306 23.2913 242.204 23.2453 242.129 23.1627C241.378 22.3377 240.221 22.1951 240.169 22.204C240.125 22.2121 240.083 22.2038 240.046 22.1838Z" fill="#080435"/>
<path d="M241.104 24.7498C241.019 25.2345 240.679 25.5748 240.345 25.5099C240.011 25.4448 239.809 24.9992 239.895 24.5145C239.98 24.0297 240.32 23.6895 240.653 23.7544C240.988 23.8195 241.189 24.2651 241.104 24.7498Z" fill="#080435"/>
<path d="M232.764 22.2109C232.718 22.2066 232.675 22.1741 232.65 22.1175C232.607 22.0223 232.631 21.8948 232.704 21.8325C232.746 21.7959 233.68 20.8246 234.716 21.8951C234.782 21.9625 234.795 22.0895 234.743 22.1826C234.691 22.2758 234.606 22.2763 234.53 22.2323C233.769 21.7929 232.893 22.1479 232.858 22.178C232.828 22.2034 232.795 22.2139 232.764 22.2109Z" fill="#080435"/>
<path d="M234.715 24.1634C234.812 24.6458 234.621 25.0968 234.289 25.1706C233.956 25.2444 233.608 24.9134 233.511 24.431C233.415 23.9488 233.606 23.4976 233.938 23.4238C234.271 23.3499 234.618 23.681 234.715 24.1634Z" fill="#080435"/>
<path d="M256.436 19.3831C256.436 19.3831 253.796 26.9931 249.266 27.934C249.266 27.934 251.315 21.2994 244.455 19.3102C244.455 19.3102 251.516 17.4939 256.436 19.3831Z" fill="#66192D"/>
<path d="M250.18 24.2529C249.526 25.5479 248.252 26.181 247.334 25.6673C246.416 25.1536 246.202 23.6872 246.857 22.3924C247.511 21.0975 248.785 20.4644 249.702 20.9781C250.62 21.4916 250.834 22.9579 250.18 24.2529Z" fill="#F18C7E"/>
<path d="M234.249 28.9069C234.249 28.9069 237.324 29.4984 240.583 28.8736C240.583 28.8736 240.356 32.119 236.981 31.7741C235.018 31.5735 234.249 28.9069 234.249 28.9069Z" fill="white"/>
<path d="M231.136 6.36011C232.662 6.27568 232.688 4.90132 232.689 4.88728L232.425 4.88499C232.424 4.93101 232.395 6.01203 231.122 6.08266L231.136 6.36011Z" fill="#66192D"/>
<path d="M234.535 14.986L234.561 14.8498C234.545 14.8466 233.019 14.5176 231.452 13.7983C230.015 13.1389 228.248 12.0082 227.99 10.364C227.85 9.47069 227.945 8.86104 228.282 8.50031C228.821 7.92172 229.901 8.08852 230.854 8.23575C231 8.2583 231.143 8.28039 231.281 8.29925L231.298 8.16145C231.161 8.14281 231.018 8.12072 230.873 8.09818C229.889 7.94634 228.774 7.77426 228.188 8.403C227.819 8.79778 227.712 9.44676 227.86 10.387C228.072 11.7376 229.297 12.9618 231.401 13.9269C232.981 14.6515 234.519 14.9828 234.535 14.986Z" fill="white"/>
<path d="M244.596 7.5603C245.427 7.5603 246.338 7.4646 247.329 7.23316L247.301 7.09744C241.635 8.42003 238.608 5.27264 238.578 5.24089L238.484 5.33842C238.51 5.36511 240.62 7.5603 244.596 7.5603Z" fill="white"/>
<path d="M135.795 114.531C135.795 115.28 136.364 115.849 137.047 115.849H150.112C151.08 115.849 151.678 114.741 151.194 113.871L140.947 80.4876C137.986 80.8168 135.51 81.2369 135.624 81.536L143.395 111.414C143.736 112.283 143.139 113.212 142.256 113.212H137.047C136.364 113.212 135.795 113.811 135.795 114.531Z" fill="#66192D"/>
<path d="M135.794 114.531C135.794 115.28 136.363 115.849 137.047 115.849H150.112C151.08 115.849 151.678 114.741 151.194 113.871L132.018 46.0345L127.096 47.5329L143.394 111.414C143.736 112.283 143.138 113.212 142.255 113.212H137.046C136.363 113.212 135.794 113.811 135.794 114.531Z" fill="#66192D"/>
<path d="M133.204 59.083H149.038V55.1486H133.204V59.083Z" fill="#66192D"/>
<path d="M143.644 8.70139L163.191 88.8578C163.37 89.5905 162.854 90.308 162.136 90.3073C158.967 90.3048 151.482 89.9977 150.801 87.1827L134.513 20.3606C133.39 15.6376 132.584 9.15046 137.745 7.06639L139.796 6.41625C141.462 5.88828 143.211 6.92674 143.644 8.70139Z" fill="#F22525"/>
<path d="M137.711 25.7305L133.679 33.4259L143.492 69.2596L149.037 73.6596L137.711 25.7305Z" fill="#F22525"/>
<path d="M69.4698 221.462C69.4698 221.462 59.742 182.866 67.8411 168.662C75.9403 154.458 103.085 152.362 113.068 162.718C123.051 173.074 124.296 185.718 108.736 191.059C93.1773 196.4 72.4659 177.074 68.5843 179.06C64.703 181.047 72.4372 219.944 72.4372 219.944L69.4698 221.462Z" fill="#C8C1E1"/>
<path d="M114.917 180.968L115.16 180.637C115.085 180.576 107.549 174.576 97.9969 170.103C92.3803 167.473 87.1737 165.876 82.5219 165.358C76.6868 164.707 71.71 165.761 67.7314 168.488L67.9504 168.837C71.8496 166.164 76.7377 165.132 82.4795 165.773C87.0894 166.286 92.2553 167.871 97.8337 170.483C107.343 174.937 114.842 180.908 114.917 180.968Z" fill="#66192D"/>
<path d="M58.5365 252.086H79.1278C82.2775 252.086 84.9037 250.078 85.1742 247.464L88.1443 218.744H50.3301L53.0207 247.831C53.2425 250.232 55.646 252.086 58.5365 252.086Z" fill="#FFBA41"/>
<path d="M48.9707 212.624V218.335C48.9707 221.868 57.9619 224.732 69.055 224.732C80.1461 224.732 89.1393 221.868 89.1393 218.335V212.624C89.1393 210.83 83.9601 209.293 76.6177 208.658C74.2833 208.453 71.7301 208.34 69.0548 208.34C57.9619 208.341 48.9707 210.257 48.9707 212.624Z" fill="#FF8548"/>
<path d="M48.9697 212.625C48.9697 212.969 49.1587 213.303 49.5175 213.623C50.4117 214.421 52.3644 215.137 55.0417 215.692C56.0856 215.91 57.2426 216.105 58.488 216.269C58.8096 216.313 59.1389 216.354 59.4755 216.39C59.6695 216.415 59.8686 216.436 60.0674 216.456C61.1015 216.569 62.1897 216.662 63.3172 216.731C63.3959 216.739 63.4744 216.744 63.5554 216.746C64.1426 216.782 64.7393 216.813 65.3462 216.836C65.7587 216.854 66.1763 216.867 66.5989 216.88C66.7611 216.882 66.9256 216.887 67.0902 216.89C67.7361 216.903 68.3921 216.911 69.0553 216.911C69.3403 216.911 69.6228 216.908 69.9051 216.906C70.0747 216.906 70.2465 216.903 70.4136 216.901C71.0816 216.89 71.7424 216.875 72.391 216.849C73.4742 216.813 74.5305 216.754 75.5473 216.68C75.7389 216.665 75.9256 216.652 76.1146 216.636H76.117C76.2693 216.623 76.4192 216.611 76.5689 216.598C76.7408 216.582 76.9102 216.567 77.0798 216.552C78.1949 216.449 79.2584 216.323 80.2581 216.179C85.6153 215.412 89.1376 214.106 89.1376 212.625C89.1376 211.717 87.8112 210.875 85.5489 210.182C84.2642 209.789 82.6773 209.443 80.8599 209.163C80.7616 209.145 80.6609 209.13 80.5601 209.117H80.5577C80.3783 209.089 80.1967 209.063 80.0125 209.037C78.9466 208.888 77.8116 208.76 76.6178 208.658C76.554 208.652 76.4926 208.647 76.4288 208.642C75.2473 208.542 74.0093 208.465 72.7295 208.416C71.9557 208.383 71.1649 208.362 70.3592 208.352C69.9294 208.344 69.4921 208.342 69.0549 208.342C68.3672 208.342 67.6891 208.349 67.0211 208.365C66.8542 208.367 66.6896 208.37 66.5249 208.375C65.3433 208.406 64.1939 208.46 63.086 208.534C62.7864 208.552 62.4867 208.575 62.1919 208.599C61.2461 208.67 60.3349 208.758 59.4604 208.86C58.2076 209.004 57.0335 209.179 55.9601 209.376C55.7783 209.41 55.5992 209.443 55.4248 209.479C55.3044 209.502 55.184 209.525 55.0662 209.551C53.2879 209.918 51.8262 210.356 50.7823 210.844C49.6183 211.385 48.9697 211.988 48.9697 212.625Z" fill="#66192D"/>
<path d="M65.6891 215.966C65.6891 215.966 58.1757 176.834 44.9221 167.8C31.6685 158.766 6.40821 169.359 1.80271 183.247C-2.80279 197.135 1.40304 209.061 17.6248 206.707C33.8465 204.353 44.3105 177.479 48.6324 177.479C52.9542 177.479 62.3848 215.966 62.3848 215.966H65.6891Z" fill="#553E93"/>
<path d="M11.3177 204.385C11.3596 204.297 15.5836 195.483 22.2502 187.114C26.1595 182.205 30.131 178.409 34.0541 175.83C38.94 172.618 43.7629 171.298 48.3889 171.907L48.4388 171.493C43.7183 170.872 38.8056 172.214 33.8384 175.479C29.8789 178.083 25.8754 181.909 21.9386 186.853C15.2438 195.259 11.0021 204.111 10.96 204.2L11.3177 204.385Z" fill="#66192D"/>
<path d="M70.4993 233.343C70.4993 233.343 70.2991 193.431 81.5349 181.789C92.7709 170.146 119.558 175.195 126.751 187.826C133.944 200.457 132.129 213.025 115.786 214.14C99.4436 215.255 84.0039 191.14 79.771 192.052C75.5381 192.963 73.7357 232.646 73.7357 232.646L70.4993 233.343Z" fill="#553E93"/>
<path d="M124.183 205.981L124.495 205.721C124.437 205.643 118.573 197.868 110.392 191.046C105.581 187.034 100.921 184.131 96.5405 182.416C91.0456 180.265 85.9754 179.987 81.4717 181.59L81.5991 181.987C86.0132 180.416 90.9923 180.692 96.3985 182.807C100.739 184.506 105.362 187.387 110.139 191.37C118.285 198.161 124.125 205.903 124.183 205.981Z" fill="#66192D"/>
<path d="M47.3433 202.851C47.3433 202.851 51.9018 194.197 62.2008 194.586C72.4999 194.975 82.447 227.335 78.6225 236.416C72.766 250.323 52.8406 251.955 44.6763 236.416C40.5902 228.64 42.2855 210.032 47.3433 202.851Z" fill="#C8C1E1"/>
<path d="M62.0553 238.406L62.446 238.32C62.4012 238.097 57.9913 215.835 60.3364 199.07L59.9414 199.009C57.5857 215.849 62.0103 238.183 62.0553 238.406Z" fill="#66192D"/>
<path d="M295.526 179.584C295.526 178.977 295.059 178.485 294.483 178.485C293.906 178.485 293.439 178.977 293.439 179.584C293.439 180.19 293.906 180.682 294.483 180.682C295.059 180.682 295.526 180.19 295.526 179.584Z" fill="#553E93"/>
<path d="M295.526 197.066C295.526 196.46 295.059 195.968 294.483 195.968C293.906 195.968 293.439 196.46 293.439 197.066C293.439 197.673 293.906 198.165 294.483 198.165C295.059 198.165 295.526 197.673 295.526 197.066Z" fill="#553E93"/>
<path d="M295.526 188.325C295.526 187.718 295.059 187.227 294.483 187.227C293.906 187.227 293.439 187.718 293.439 188.325C293.439 188.932 293.906 189.423 294.483 189.423C295.059 189.423 295.526 188.932 295.526 188.325Z" fill="#553E93"/>
<path d="M295.526 205.808C295.526 205.202 295.059 204.71 294.483 204.71C293.906 204.71 293.439 205.201 293.439 205.808C293.439 206.415 293.906 206.906 294.483 206.906C295.059 206.906 295.526 206.414 295.526 205.808Z" fill="#553E93"/>
<path d="M295.526 214.549C295.526 213.943 295.059 213.451 294.483 213.451C293.906 213.451 293.439 213.943 293.439 214.549C293.439 215.156 293.906 215.648 294.483 215.648C295.059 215.648 295.526 215.156 295.526 214.549Z" fill="#553E93"/>
<path d="M295.526 223.291C295.526 222.684 295.059 222.193 294.483 222.193C293.906 222.193 293.439 222.684 293.439 223.291C293.439 223.897 293.906 224.389 294.483 224.389C295.059 224.389 295.526 223.897 295.526 223.291Z" fill="#553E93"/>
<path d="M295.526 232.032C295.526 231.426 295.059 230.934 294.483 230.934C293.906 230.934 293.439 231.426 293.439 232.032C293.439 232.639 293.906 233.131 294.483 233.131C295.059 233.131 295.526 232.639 295.526 232.032Z" fill="#553E93"/>
<path d="M161.937 35.3172C161.37 35.4244 160.993 35.9952 161.095 36.5922C161.197 37.1891 161.739 37.5862 162.306 37.479C162.873 37.3718 163.25 36.801 163.148 36.2041C163.046 35.6071 162.504 35.21 161.937 35.3172Z" fill="#553E93"/>
<path d="M178.282 32.228C177.715 32.3352 177.338 32.906 177.439 33.503C177.541 34.1 178.083 34.497 178.65 34.3898C179.218 34.2826 179.595 33.7119 179.493 33.1149C179.391 32.5179 178.849 32.1208 178.282 32.228Z" fill="#553E93"/>
<path d="M170.11 33.7726C169.543 33.8798 169.166 34.4506 169.268 35.0476C169.369 35.6445 169.912 36.0416 170.479 35.9344C171.046 35.8272 171.423 35.2564 171.321 34.6594C171.219 34.0625 170.677 33.6654 170.11 33.7726Z" fill="#553E93"/>
<path d="M186.455 30.6834C185.888 30.7906 185.51 31.3614 185.612 31.9584C185.714 32.5554 186.256 32.9524 186.823 32.8452C187.39 32.738 187.768 32.1673 187.666 31.5703C187.564 30.9733 187.022 30.5762 186.455 30.6834Z" fill="#553E93"/>
<path d="M194.628 29.1388C194.06 29.246 193.683 29.8168 193.785 30.4138C193.887 31.0108 194.429 31.4079 194.996 31.3007C195.563 31.1934 195.94 30.6227 195.839 30.0257C195.737 29.4287 195.195 29.0316 194.628 29.1388Z" fill="#553E93"/>
<path d="M202.799 27.5942C202.232 27.7014 201.855 28.2722 201.957 28.8692C202.059 29.4662 202.601 29.8633 203.168 29.7561C203.735 29.6488 204.112 29.0781 204.01 28.4811C203.909 27.8841 203.366 27.487 202.799 27.5942Z" fill="#553E93"/>
<path d="M210.972 26.0496C210.405 26.1568 210.028 26.7276 210.13 27.3246C210.232 27.9216 210.774 28.3187 211.341 28.2115C211.908 28.1042 212.285 27.5335 212.183 26.9365C212.082 26.3395 211.539 25.9424 210.972 26.0496Z" fill="#553E93"/>
<path d="M218.993 24.0866C218.426 24.1938 218.049 24.7645 218.15 25.3615C218.252 25.9585 218.794 26.3556 219.361 26.2484C219.928 26.1412 220.306 25.5704 220.204 24.9734C220.102 24.3764 219.56 23.9794 218.993 24.0866Z" fill="#553E93"/>
<path d="M304.77 202.166C304.77 195.542 308.525 193.194 314.197 193.194C319.057 193.194 322.534 197.233 322.997 202.166C323.548 208.045 318.367 211.718 313.507 211.718C308.647 211.718 304.77 207.121 304.77 202.166Z" fill="#FF8548"/>
<path d="M313.011 206.808C312.735 206.808 312.471 206.681 312.29 206.458L308.769 202.132C308.428 201.713 308.474 201.082 308.873 200.723C309.271 200.363 309.87 200.413 310.211 200.831L312.947 204.193L317.547 197.479C317.854 197.031 318.447 196.93 318.872 197.253C319.298 197.575 319.394 198.2 319.087 198.648L313.781 206.393C313.611 206.641 313.342 206.794 313.051 206.807C313.038 206.807 313.024 206.808 313.011 206.808Z" fill="#66192D"/>
<path d="M218.812 209.163C218.812 202.538 222.568 200.191 228.24 200.191C233.1 200.191 236.577 204.23 237.04 209.163C237.591 215.042 232.41 218.715 227.55 218.715C222.69 218.715 218.812 214.118 218.812 209.163Z" fill="#FF8548"/>
<path d="M227.054 213.804C226.778 213.804 226.514 213.677 226.334 213.455L222.812 209.129C222.471 208.71 222.518 208.079 222.916 207.72C223.314 207.36 223.913 207.409 224.254 207.828L226.99 211.19L231.59 204.476C231.897 204.028 232.49 203.927 232.916 204.25C233.341 204.572 233.437 205.197 233.13 205.645L227.824 213.39C227.654 213.638 227.385 213.791 227.094 213.804C227.081 213.804 227.068 213.804 227.054 213.804Z" fill="#66192D"/>
<path d="M230.033 178.51C230.033 177.903 229.566 177.412 228.99 177.412C228.413 177.412 227.946 177.903 227.946 178.51C227.946 179.117 228.413 179.608 228.99 179.608C229.566 179.608 230.033 179.116 230.033 178.51Z" fill="#553E93"/>
<path d="M224.397 194.55C224.397 193.944 223.93 193.452 223.354 193.452C222.778 193.452 222.311 193.944 222.311 194.55C222.311 195.157 222.778 195.649 223.354 195.649C223.93 195.649 224.397 195.157 224.397 194.55Z" fill="#553E93"/>
<path d="M208.171 195.446C208.171 194.84 207.704 194.348 207.128 194.348C206.552 194.348 206.085 194.84 206.085 195.446C206.085 196.053 206.552 196.545 207.128 196.545C207.704 196.545 208.171 196.053 208.171 195.446Z" fill="#553E93"/>
<path d="M216.284 196.747C216.284 196.14 215.817 195.649 215.24 195.649C214.664 195.649 214.197 196.14 214.197 196.747C214.197 197.353 214.664 197.845 215.24 197.845C215.817 197.845 216.284 197.353 216.284 196.747Z" fill="#553E93"/>
<path d="M228.99 187.247C228.99 186.64 228.523 186.149 227.947 186.149C227.37 186.149 226.903 186.64 226.903 187.247C226.903 187.854 227.37 188.345 227.947 188.345C228.523 188.345 228.99 187.854 228.99 187.247Z" fill="#553E93"/>
<path d="M192.5 94.3312C192.553 94.9354 193.06 95.3803 193.634 95.3255C194.208 95.2706 194.631 94.7364 194.578 94.1322C194.526 93.5281 194.019 93.0832 193.445 93.1382C192.871 93.1929 192.448 93.7273 192.5 94.3312Z" fill="#553E93"/>
<path d="M196.733 77.819C196.785 78.4231 197.293 78.8681 197.866 78.8133C198.44 78.7583 198.863 78.2241 198.811 77.62C198.759 77.0159 198.251 76.5707 197.677 76.6257C197.103 76.6807 196.681 77.2151 196.733 77.819Z" fill="#553E93"/>
<path d="M212.814 75.3786C212.866 75.9827 213.374 76.4279 213.947 76.3729C214.521 76.3179 214.944 75.7837 214.892 75.1796C214.84 74.5755 214.332 74.1305 213.758 74.1855C213.185 74.2403 212.762 74.7745 212.814 75.3786Z" fill="#553E93"/>
<path d="M204.623 74.8575C204.675 75.4616 205.182 75.9066 205.756 75.8518C206.33 75.7968 206.753 75.2626 206.7 74.6585C206.648 74.0544 206.141 73.6095 205.567 73.6644C204.993 73.7192 204.57 74.2534 204.623 74.8575Z" fill="#553E93"/>
<path d="M192.788 85.5307C192.84 86.1348 193.347 86.5797 193.921 86.5248C194.495 86.4698 194.918 85.9356 194.865 85.3315C194.813 84.7273 194.306 84.2822 193.732 84.3372C193.158 84.3924 192.735 84.9266 192.788 85.5307Z" fill="#553E93"/>
<path d="M178.549 64.1206C178.549 57.4961 182.305 55.1487 187.976 55.1487C192.836 55.1487 196.314 59.188 196.776 64.1206C197.327 69.9999 192.146 73.6727 187.287 73.6727C182.427 73.6727 178.549 69.0755 178.549 64.1206Z" fill="#FF8548"/>
<path d="M186.79 68.762C186.513 68.762 186.25 68.6347 186.069 68.4127L182.548 64.0865C182.207 63.6674 182.253 63.0363 182.651 62.6772C183.049 62.3179 183.648 62.3666 183.99 62.7858L186.726 66.1474L191.325 59.433C191.632 58.9853 192.225 58.8841 192.651 59.2071C193.076 59.5298 193.172 60.1547 192.865 60.6023L187.56 68.3469C187.389 68.5954 187.12 68.7479 186.829 68.7608C186.816 68.7615 186.803 68.762 186.79 68.762Z" fill="#66192D"/>
<path d="M182.423 8.97192C182.423 2.34748 186.179 0 191.85 0C196.71 0 200.188 4.0393 200.65 8.97192C201.201 14.8512 196.02 18.5241 191.161 18.5241C186.301 18.5241 182.423 13.9269 182.423 8.97192Z" fill="#FF8548"/>
<path d="M190.664 13.6133C190.387 13.6133 190.124 13.4861 189.943 13.2641L186.422 8.93788C186.081 8.51872 186.127 7.88767 186.525 7.52856C186.923 7.16944 187.522 7.21798 187.864 7.63714L190.6 10.9985L195.199 4.28409C195.506 3.8364 196.099 3.73518 196.525 4.05818C196.95 4.38095 197.046 5.00576 196.739 5.45345L191.434 13.198C191.263 13.4465 190.994 13.599 190.703 13.6119C190.69 13.6131 190.677 13.6133 190.664 13.6133Z" fill="#66192D"/>
<path d="M300.657 57.3365C300.657 50.712 304.413 48.3645 310.085 48.3645C314.945 48.3645 318.422 52.4039 318.884 57.3365C319.436 63.2158 314.255 66.8886 309.395 66.8886C304.535 66.8886 300.657 62.2916 300.657 57.3365Z" fill="#FF8548"/>
<path d="M308.898 61.9778C308.622 61.9778 308.358 61.8509 308.177 61.6286L304.656 57.3024C304.315 56.8833 304.361 56.2522 304.759 55.8931C305.158 55.5338 305.757 55.5825 306.098 56.0017L308.834 59.3633L313.434 52.6489C313.74 52.2009 314.334 52.0997 314.759 52.423C315.184 52.7457 315.28 53.3706 314.974 53.8182L309.668 61.5631C309.498 61.8115 309.229 61.964 308.938 61.9769C308.925 61.9776 308.912 61.9778 308.898 61.9778Z" fill="#66192D"/>
<path d="M291.353 48.2932C291.353 47.6868 290.886 47.1949 290.31 47.1949C289.734 47.1949 289.267 47.6866 289.267 48.2932C289.267 48.8999 289.734 49.3915 290.31 49.3915C290.886 49.3915 291.353 48.8997 291.353 48.2932Z" fill="#553E93"/>
<path d="M291.353 62.3153C291.353 61.7087 290.886 61.2171 290.31 61.2171C289.734 61.2171 289.267 61.7087 289.267 62.3153C289.267 62.9218 289.734 63.4136 290.31 63.4136C290.886 63.4136 291.353 62.922 291.353 62.3153Z" fill="#553E93"/>
<path d="M291.353 76.3374C291.353 75.731 290.886 75.2392 290.31 75.2392C289.734 75.2392 289.267 75.7308 289.267 76.3374C289.267 76.9441 289.734 77.4357 290.31 77.4357C290.886 77.4357 291.353 76.9441 291.353 76.3374Z" fill="#553E93"/>
<path d="M291.353 104.382C291.353 103.775 290.886 103.284 290.31 103.284C289.734 103.284 289.267 103.775 289.267 104.382C289.267 104.989 289.734 105.48 290.31 105.48C290.886 105.48 291.353 104.989 291.353 104.382Z" fill="#553E93"/>
<path d="M291.353 90.3598C291.353 89.7534 290.886 89.2615 290.31 89.2615C289.734 89.2615 289.267 89.7531 289.267 90.3598C289.267 90.9664 289.734 91.4581 290.31 91.4581C290.886 91.4581 291.353 90.9662 291.353 90.3598Z" fill="#553E93"/>
<path d="M291.353 118.404C291.353 117.798 290.886 117.306 290.31 117.306C289.734 117.306 289.267 117.797 289.267 118.404C289.267 119.011 289.734 119.502 290.31 119.502C290.886 119.502 291.353 119.011 291.353 118.404Z" fill="#553E93"/>
<path d="M181.76 235.444C181.836 235.444 181.911 235.401 181.95 235.326C182.008 235.215 181.97 235.076 181.865 235.015C171.13 228.794 170.772 171.054 170.77 170.472C170.77 170.346 170.672 170.244 170.553 170.244C170.552 170.244 170.552 170.244 170.552 170.244C170.432 170.245 170.335 170.348 170.336 170.474C170.336 170.62 170.411 185.256 171.826 200.482C173.732 220.987 177.039 232.74 181.655 235.415C181.689 235.435 181.724 235.444 181.76 235.444Z" fill="#66192D"/>
<path d="M193.538 119.081L163.822 116.771V120.531L193.538 119.081Z" fill="#553E93"/>
<path d="M158.775 107.406L163.823 116.771V120.531L158.775 110.598V107.406Z" fill="#66192D"/>
<path d="M193.538 119.081L182.437 108.904L158.775 107.406L163.823 116.771L193.538 119.081Z" fill="#C8C1E1"/>
<path d="M192.066 103.626C192.066 103.626 180.372 99.4392 176.596 101.224C172.82 103.01 169.279 108.295 171.843 107.712C174.407 107.129 177.487 105.43 177.487 105.43C177.487 105.43 171.068 109.384 172.597 110.564C174.125 111.744 179.676 108.249 179.676 108.249C179.676 108.249 172.394 113.594 174.18 114.217C175.967 114.84 181.472 110.738 181.472 110.738C181.472 110.738 174.885 115.996 176.977 116.668C179.068 117.34 182.393 112.285 183.921 113.465C185.45 114.645 187.464 117.43 192.938 115.925L192.066 103.626Z" fill="#F18C7E"/>
<path d="M264.641 65.5017C264.911 63.2012 258.833 60.5187 251.066 59.5103C243.299 58.5018 236.784 59.5493 236.514 61.8498C236.245 64.1503 242.323 66.8327 250.09 67.8411C257.857 68.8496 264.372 67.8022 264.641 65.5017Z" fill="#66192D"/>
<path d="M243.678 110.423C237.051 119.075 214.734 117.879 191.472 116.137L190.649 103.284C203.467 100.607 224.914 98.7119 227.08 95.9807C230.666 91.4581 238.286 70.3457 240.499 61.4002C240.673 60.6962 261.39 61.2667 260.812 64.9732C258.05 82.6826 250.294 101.787 243.678 110.423Z" fill="#F18C7E"/>
</svg>
