<svg xmlns="http://www.w3.org/2000/svg" version="1.1" xmlns:xlink="http://www.w3.org/1999/xlink" x="0" y="0" viewBox="0 0 32 32" style="enable-background:new 0 0 512 512" xml:space="preserve"><g><linearGradient id="a" x1="16.341" x2="16.341" y1=".447" y2="32.299" gradientUnits="userSpaceOnUse"><stop offset="0" stop-color="#ffeef1"/><stop offset="1" stop-color="#ffc6cf"/></linearGradient><linearGradient id="b" x1="16" x2="16" y1="4.872" y2="26.028" gradientUnits="userSpaceOnUse"><stop offset="0" stop-color="#fd4685"/><stop offset="1" stop-color="#ff9d8c"/></linearGradient><path fill="url(#a)" d="M26.954 1.057a150.513 150.513 0 0 0-21.226 0 5.065 5.065 0 0 0-4.67 4.671 150.363 150.363 0 0 0 0 21.226 5.065 5.065 0 0 0 4.67 4.67 150.168 150.168 0 0 0 21.226 0 5.065 5.065 0 0 0 4.671-4.67 150.363 150.363 0 0 0 0-21.226 5.065 5.065 0 0 0-4.67-4.67z" data-name="Layer 2" opacity="1" data-original="url(#a)"/><g fill="url(#b)" data-name="Layer 1"><path d="M23 18.171v-3.92a7.226 7.226 0 0 0-6-7.173V6a1 1 0 0 0-2 0v1.073A6.996 6.996 0 0 0 9 14v4.171A3 3 0 0 0 10 24h12a3 3 0 0 0 1-5.829zM18 25h-4a1 1 0 0 0 0 2h4a1 1 0 0 0 0-2z" fill="" opacity="1"/></g></g></svg>