<svg width="111" height="111" viewBox="0 0 111 111" fill="none" xmlns="http://www.w3.org/2000/svg">
<mask id="mask0_310_86" style="mask-type:luminance" maskUnits="userSpaceOnUse" x="0" y="0" width="111" height="111">
<path d="M55.0664 110.156C85.4421 110.156 110.066 85.5319 110.066 55.1563C110.066 24.7806 85.4421 0.15625 55.0664 0.15625C24.6908 0.15625 0.0664215 24.7806 0.0664215 55.1563C0.0664215 85.5319 24.6908 110.156 55.0664 110.156Z" fill="white"/>
</mask>
<g mask="url(#mask0_310_86)">
<path d="M55.0664 110.156C85.4421 110.156 110.066 85.5319 110.066 55.1563C110.066 24.7806 85.4421 0.15625 55.0664 0.15625C24.6908 0.15625 0.0664215 24.7806 0.0664215 55.1563C0.0664215 85.5319 24.6908 110.156 55.0664 110.156Z" fill="#FFA9A9"/>
</g>
<mask id="mask1_310_86" style="mask-type:luminance" maskUnits="userSpaceOnUse" x="0" y="0" width="111" height="111">
<path d="M55.0664 110.156C85.4421 110.156 110.066 85.5319 110.066 55.1563C110.066 24.7806 85.4421 0.15625 55.0664 0.15625C24.6908 0.15625 0.0664215 24.7806 0.0664215 55.1563C0.0664215 85.5319 24.6908 110.156 55.0664 110.156Z" fill="white"/>
</mask>
<g mask="url(#mask1_310_86)">
<path d="M22.0006 153.953H87.0919C86.4101 150.991 85.9687 148.011 86.1662 144.971C86.7552 135.924 92.908 127.892 95.7619 119.476C96.928 116.038 97.5431 112.534 97.0035 108.871C95.5412 98.9525 86.0466 92.4806 76.8168 89.3726C62.3295 84.4939 46.2597 84.7986 31.9539 90.2243C22.1767 93.9335 14.9661 102.76 13.2402 113.398C11.0895 126.655 20.3003 133.98 21.6942 145.983C22.0018 148.634 22.075 151.292 22.0006 153.953Z" fill="#F3725F"/>
</g>
<mask id="mask2_310_86" style="mask-type:luminance" maskUnits="userSpaceOnUse" x="0" y="0" width="111" height="111">
<path d="M55.0664 110.156C85.4421 110.156 110.066 85.5319 110.066 55.1563C110.066 24.7806 85.4421 0.15625 55.0664 0.15625C24.6908 0.15625 0.0664215 24.7806 0.0664215 55.1563C0.0664215 85.5319 24.6908 110.156 55.0664 110.156Z" fill="white"/>
</mask>
<g mask="url(#mask2_310_86)">
<path d="M72.1389 88.6067C65.9736 85.125 62.3873 77.3399 63.6599 70.1984H51.3358C51.4964 75.1696 48.6229 78.702 45.9742 82.8551C44.5934 85.0195 42.9472 87.2682 40.5359 87.982C44.0193 92.8041 50.0489 95.2148 55.8692 95.3675C61.6889 95.5201 68.4235 93.2402 72.1389 88.6067Z" fill="#DD5F52"/>
</g>
<mask id="mask3_310_86" style="mask-type:luminance" maskUnits="userSpaceOnUse" x="0" y="0" width="111" height="111">
<path d="M55.0664 110.156C85.4421 110.156 110.066 85.5319 110.066 55.1563C110.066 24.7806 85.4421 0.15625 55.0664 0.15625C24.6908 0.15625 0.0664215 24.7806 0.0664215 55.1563C0.0664215 85.5319 24.6908 110.156 55.0664 110.156Z" fill="white"/>
</mask>
<g mask="url(#mask3_310_86)">
<path d="M22.0006 153.953H87.0919C86.4101 150.991 85.9687 148.011 86.1662 144.971C86.7552 135.924 92.908 127.892 95.7619 119.476C96.928 116.038 97.5431 112.534 97.0035 108.871C95.5412 98.9525 86.0466 92.4806 76.8168 89.3726C62.3295 84.4939 46.2597 84.7986 31.9539 90.2243C22.1767 93.9335 14.9661 102.76 13.2402 113.398C11.0895 126.655 20.3003 133.98 21.6942 145.983C22.0018 148.634 22.075 151.292 22.0006 153.953Z" fill="#5433F6"/>
</g>
<mask id="mask4_310_86" style="mask-type:luminance" maskUnits="userSpaceOnUse" x="0" y="0" width="111" height="111">
<path d="M55.0664 110.156C85.4421 110.156 110.066 85.5319 110.066 55.1563C110.066 24.7806 85.4421 0.15625 55.0664 0.15625C24.6908 0.15625 0.0664215 24.7806 0.0664215 55.1563C0.0664215 85.5319 24.6908 110.156 55.0664 110.156Z" fill="white"/>
</mask>
<g mask="url(#mask4_310_86)">
<path d="M64.1474 78.2068H48.9503C48.0484 79.7422 46.9954 81.2523 45.9733 82.8544C44.5924 85.0188 42.9463 87.2674 40.535 87.9812C44.0183 92.8033 50.048 95.2141 55.8683 95.3668C61.6885 95.5194 68.4238 93.2395 72.1392 88.6066C68.2745 86.4246 65.4241 82.552 64.1474 78.2068Z" fill="#5433F6"/>
</g>
<mask id="mask5_310_86" style="mask-type:luminance" maskUnits="userSpaceOnUse" x="0" y="0" width="111" height="111">
<path d="M55.0664 110.156C85.4421 110.156 110.066 85.5319 110.066 55.1563C110.066 24.7806 85.4421 0.15625 55.0664 0.15625C24.6908 0.15625 0.0664215 24.7806 0.0664215 55.1563C0.0664215 85.5319 24.6908 110.156 55.0664 110.156Z" fill="white"/>
</mask>
<g mask="url(#mask5_310_86)">
<path d="M68.3352 53.0485C68.3025 56.0646 70.5918 58.5372 73.4493 58.572C76.3068 58.6068 78.6496 56.1901 78.6823 53.174C78.7151 50.1579 76.4257 47.6853 73.5683 47.6505C70.7114 47.6163 68.3679 50.033 68.3352 53.0485Z" fill="#F3725F"/>
</g>
<mask id="mask6_310_86" style="mask-type:luminance" maskUnits="userSpaceOnUse" x="0" y="0" width="111" height="111">
<path d="M55.0664 110.156C85.4421 110.156 110.066 85.5319 110.066 55.1563C110.066 24.7806 85.4421 0.15625 55.0664 0.15625C24.6908 0.15625 0.0664215 24.7806 0.0664215 55.1563C0.0664215 85.5319 24.6908 110.156 55.0664 110.156Z" fill="white"/>
</mask>
<g mask="url(#mask6_310_86)">
<path d="M70.2553 61.6871C70.2464 61.8415 70.2351 61.9953 70.2208 62.1486C70.2137 62.2264 70.2065 62.3054 70.1982 62.3826C70.1928 62.4309 70.1887 62.4793 70.1821 62.5276C70.1655 62.6756 70.147 62.8205 70.125 62.9667C70.1185 63.0109 70.1119 63.0534 70.1054 63.0982C70.0721 63.3104 70.0346 63.5226 69.9923 63.7318C69.9477 63.9546 69.8983 64.1756 69.8436 64.3949C69.8246 64.4733 69.8043 64.5499 69.7841 64.6266C69.7722 64.6731 69.7591 64.7197 69.746 64.7663C69.6955 64.9525 69.6401 65.1358 69.5812 65.3186C69.4408 65.7612 69.279 66.1938 69.0976 66.6165C69.0547 66.7184 69.0095 66.8198 68.9637 66.92C68.5502 67.8254 68.0499 68.6783 67.4728 69.4657C67.3467 69.6361 67.2182 69.8035 67.0879 69.9662C67.0171 70.0552 66.9445 70.1406 66.8725 70.2285C66.7505 70.3711 66.628 70.5108 66.5013 70.6493C66.1931 70.9876 65.8682 71.3083 65.5297 71.6124C65.3709 71.7539 65.2102 71.8913 65.0466 72.0256C64.3761 72.5732 63.6581 73.0554 62.8983 73.4627C62.326 73.7715 61.7305 74.0356 61.1147 74.2554C60.9797 74.3038 60.844 74.3497 60.7084 74.3922C60.6114 74.4234 60.5144 74.4535 60.4168 74.4806C60.3645 74.4965 60.3109 74.513 60.2574 74.5272C60.208 74.5407 60.158 74.5543 60.1087 74.5667C59.9504 74.6097 59.7922 74.6498 59.6321 74.6851C58.6826 74.8991 57.6998 75.0046 56.6925 74.9928C56.4712 74.9899 56.2523 74.9816 56.034 74.9675C53.5775 74.8101 51.2959 73.9495 49.3689 72.5768C45.7386 69.9915 43.3583 65.5903 43.4124 60.6479L43.4493 57.2941L43.5582 47.4306L43.5915 44.3456L43.6379 40.0881C43.6409 39.8541 43.6486 39.6207 43.6623 39.3902C43.6688 39.2765 43.6766 39.161 43.6861 39.0478C43.6926 38.9564 43.7004 38.8674 43.7111 38.7778C43.7188 38.6876 43.7295 38.5963 43.7414 38.5067C43.7426 38.4843 43.745 38.4625 43.7491 38.4419C43.7551 38.3864 43.7622 38.3311 43.7706 38.2762C43.7783 38.2096 43.7872 38.1448 43.7979 38.0788C43.8027 38.0387 43.8092 37.9986 43.8152 37.9585C43.83 37.8619 43.8461 37.7658 43.8634 37.6691C43.877 37.5878 43.8925 37.5064 43.9092 37.4257C43.9169 37.3773 43.9264 37.3308 43.9371 37.2825C43.9746 37.0938 44.0169 36.9088 44.0633 36.7237C44.0877 36.6194 44.115 36.5139 44.143 36.4113C44.1686 36.3152 44.1947 36.2209 44.2227 36.1254C44.2495 36.0323 44.278 35.9397 44.306 35.8466C44.3072 35.8437 44.3078 35.8413 44.309 35.8384C44.3381 35.7452 44.3685 35.6539 44.3988 35.5613C44.4303 35.4688 44.4625 35.3757 44.4952 35.2831C44.5279 35.1918 44.5624 35.0992 44.5969 35.0085C44.6671 34.8228 44.7421 34.6401 44.82 34.4585C44.8349 34.4237 44.851 34.3896 44.8658 34.3554C44.9313 34.2062 44.9985 34.0577 45.0681 33.9115C45.0842 33.8773 45.1008 33.8437 45.1175 33.8096C45.1913 33.6587 45.2674 33.5089 45.3459 33.361C45.3584 33.3374 45.3709 33.3144 45.3834 33.2909C47.7233 28.9415 52.177 26.012 57.228 26.0733C62.9084 26.1429 67.7554 29.9747 69.6514 35.2872C70.2226 36.884 70.5266 38.6146 70.5064 40.417L70.2821 60.9762C70.2773 61.215 70.2684 61.4513 70.2553 61.6871Z" fill="#F3725F"/>
</g>
<mask id="mask7_310_86" style="mask-type:luminance" maskUnits="userSpaceOnUse" x="0" y="0" width="111" height="111">
<path d="M55.0664 110.156C85.4421 110.156 110.066 85.5319 110.066 55.1563C110.066 24.7806 85.4421 0.15625 55.0664 0.15625C24.6908 0.15625 0.0664215 24.7806 0.0664215 55.1563C0.0664215 85.5319 24.6908 110.156 55.0664 110.156Z" fill="white"/>
</mask>
<g mask="url(#mask7_310_86)">
<path d="M36.1047 52.2739C36.072 55.29 38.3613 57.7627 41.2188 57.7975C44.0763 57.8322 46.4191 55.4156 46.4519 52.3995C46.4846 49.3834 44.1953 46.9107 41.3378 46.876C38.4809 46.8418 36.1381 49.2584 36.1047 52.2739Z" fill="#F3725F"/>
</g>
<mask id="mask8_310_86" style="mask-type:luminance" maskUnits="userSpaceOnUse" x="0" y="0" width="111" height="111">
<path d="M55.0664 110.156C85.4421 110.156 110.066 85.5319 110.066 55.1563C110.066 24.7806 85.4421 0.15625 55.0664 0.15625C24.6908 0.15625 0.0664215 24.7806 0.0664215 55.1563C0.0664215 85.5319 24.6908 110.156 55.0664 110.156Z" fill="white"/>
</mask>
<g mask="url(#mask8_310_86)">
<path d="M57.1722 53.8777L57.3185 56.7511H59.5133L57.757 59.3222" stroke="#472A1C" stroke-width="0.9873" stroke-miterlimit="10" stroke-linecap="round" stroke-linejoin="round"/>
</g>
<mask id="mask9_310_86" style="mask-type:luminance" maskUnits="userSpaceOnUse" x="0" y="0" width="111" height="111">
<path d="M55.0664 110.156C85.4421 110.156 110.066 85.5319 110.066 55.1563C110.066 24.7806 85.4421 0.15625 55.0664 0.15625C24.6908 0.15625 0.0664215 24.7806 0.0664215 55.1563C0.0664215 85.5319 24.6908 110.156 55.0664 110.156Z" fill="white"/>
</mask>
<g mask="url(#mask9_310_86)">
<path d="M45.9981 52.9163C46.0237 53.6808 47.3545 54.2885 49.2084 54.4813C49.7515 54.5379 50.3411 54.5591 50.9563 54.5379C51.6791 54.5131 52.3645 54.4318 52.9791 54.3068C54.6639 53.9661 55.8205 53.3001 55.7967 52.5762C55.7747 51.9013 54.7359 51.3508 53.2182 51.098C52.5109 50.9795 51.6994 50.9264 50.8379 50.9565C50.0621 50.983 49.3309 51.075 48.6836 51.2141C47.0713 51.5618 45.9743 52.212 45.9981 52.9163Z" fill="white"/>
<path d="M48.2603 52.5668C48.2603 53.3331 48.6274 54.0203 49.2087 54.4813C49.7519 54.5379 50.3414 54.5591 50.9566 54.5379C51.6794 54.5131 52.3648 54.4318 52.9794 54.3068C53.444 53.8547 53.7278 53.2417 53.7278 52.5674C53.7278 52.0198 53.5398 51.5112 53.2185 51.098C52.5112 50.9795 51.6997 50.9264 50.8382 50.9565C50.0624 50.983 49.3312 51.075 48.6839 51.2141C48.4156 51.606 48.2603 52.0705 48.2603 52.5668Z" fill="#362F36"/>
</g>
<mask id="mask10_310_86" style="mask-type:luminance" maskUnits="userSpaceOnUse" x="0" y="0" width="111" height="111">
<path d="M55.0664 110.156C85.4421 110.156 110.066 85.5319 110.066 55.1563C110.066 24.7806 85.4421 0.15625 55.0664 0.15625C24.6908 0.15625 0.0664215 24.7806 0.0664215 55.1563C0.0664215 85.5319 24.6908 110.156 55.0664 110.156Z" fill="white"/>
</mask>
<g mask="url(#mask10_310_86)">
<path d="M58.8501 52.4072C58.8757 53.1717 60.2065 53.7794 62.0603 53.9715C62.6035 54.0281 63.1931 54.0493 63.8083 54.0281C64.5311 54.0034 65.2165 53.922 65.831 53.7965C67.5159 53.4558 68.6725 52.7897 68.6487 52.0659C68.6267 51.3916 67.5879 50.8405 66.0702 50.5876C65.3628 50.4692 64.5513 50.4167 63.6899 50.4462C62.9141 50.4727 62.1829 50.5646 61.5356 50.7037C59.9233 51.0527 58.8263 51.7028 58.8501 52.4072Z" fill="white"/>
<path d="M61.1122 52.0577C61.1122 52.8239 61.4793 53.5112 62.0605 53.9721C62.6037 54.0287 63.1933 54.0499 63.8085 54.0287C64.5313 54.004 65.2167 53.9226 65.8312 53.7971C66.2959 53.345 66.5797 52.732 66.5797 52.0577C66.5797 51.5101 66.3917 51.0014 66.0704 50.5882C65.363 50.4698 64.5515 50.4173 63.6901 50.4468C62.9143 50.4733 62.1831 50.5652 61.5358 50.7044C61.2675 51.0969 61.1122 51.5614 61.1122 52.0577Z" fill="#362F36"/>
</g>
<mask id="mask11_310_86" style="mask-type:luminance" maskUnits="userSpaceOnUse" x="0" y="0" width="111" height="111">
<path d="M55.0664 110.156C85.4421 110.156 110.066 85.5319 110.066 55.1563C110.066 24.7806 85.4421 0.15625 55.0664 0.15625C24.6908 0.15625 0.0664215 24.7806 0.0664215 55.1563C0.0664215 85.5319 24.6908 110.156 55.0664 110.156Z" fill="white"/>
</mask>
<g mask="url(#mask11_310_86)">
<path d="M53.7775 61.4661C53.8661 63.4177 55.4861 64.9737 57.4779 64.9737C59.4692 64.9737 61.0892 63.4177 61.1784 61.4661H53.7775Z" fill="white"/>
</g>
<path d="M46.9768 47.9887C48.153 45.7719 50.3989 44.1427 52.8869 43.7018" stroke="#472A1C" stroke-width="0.9873" stroke-miterlimit="10" stroke-linecap="round" stroke-linejoin="round"/>
<path d="M67.1438 47.7731C65.9676 45.5563 63.7217 43.9271 61.2337 43.4862" stroke="#472A1C" stroke-width="0.9873" stroke-miterlimit="10" stroke-linecap="round" stroke-linejoin="round"/>
<path d="M41.3749 29.7585C39.251 31.2834 38.3556 34.0112 38.1611 36.6029C37.7298 42.3404 40.2785 48.22 44.7756 51.8603C44.1063 47.2904 44.28 42.018 44.9392 37.447C48.175 42.0434 52.6061 46.0055 58.0885 47.3865C63.5708 48.7669 69.9711 47.2262 73.4342 42.7949C72.615 43.9301 71.3014 44.5478 70.4822 45.6831V53.6456C75.2958 49.9611 78.2954 44.015 77.8885 38.0017C77.4816 31.9883 73.8911 26.2756 68.6236 23.2607C63.3566 20.2458 56.5672 20.0171 51.1057 22.6713C51.5091 18.7504 54.8669 15.0948 58.7054 14.058C55.7724 13.4402 52.7554 13.6236 50.2228 15.2138C47.6902 16.8041 45.8233 19.4023 45.1349 22.2934C43.0491 20.61 39.9733 20.0672 37.4769 21.0604C34.9806 22.0535 33.1142 24.4555 32.7829 27.1002C34.2149 26.0787 36.7588 25.1115 38.3669 25.83C39.9756 26.5485 41.1994 28.0185 41.3749 29.7585Z" fill="#FCD6BE"/>
<path d="M45.3969 60.8478C45.3969 62.932 43.6913 64.6213 41.5876 64.6213C39.4839 64.6213 37.7782 62.9314 37.7782 60.8478C37.7782 58.7636 39.4839 57.0737 41.5876 57.0737C43.6913 57.0737 45.3969 58.7636 45.3969 60.8478Z" fill="#FCD6BE"/>
<path d="M76.2554 60.1987C76.2554 62.2829 74.5497 63.9728 72.446 63.9728C70.3423 63.9728 68.6366 62.2829 68.6366 60.1987C68.6366 58.1145 70.3417 56.4252 72.446 56.4252C74.5503 56.4252 76.2554 58.1145 76.2554 60.1987Z" fill="#FCD6BE"/>
</svg>
