<svg width="111" height="111" viewBox="0 0 111 111" fill="none" xmlns="http://www.w3.org/2000/svg">
<mask id="mask0_264_372" style="mask-type:luminance" maskUnits="userSpaceOnUse" x="0" y="0" width="111" height="111">
<path d="M55.5324 110.704C85.908 110.704 110.532 86.08 110.532 55.7043C110.532 25.3287 85.908 0.704346 55.5324 0.704346C25.1567 0.704346 0.532373 25.3287 0.532373 55.7043C0.532373 86.08 25.1567 110.704 55.5324 110.704Z" fill="white"/>
</mask>
<g mask="url(#mask0_264_372)">
<path d="M55.5324 110.704C85.908 110.704 110.532 86.08 110.532 55.7043C110.532 25.3287 85.908 0.704346 55.5324 0.704346C25.1567 0.704346 0.532373 25.3287 0.532373 55.7043C0.532373 86.08 25.1567 110.704 55.5324 110.704Z" fill="#FFA9A9"/>
</g>
<mask id="mask1_264_372" style="mask-type:luminance" maskUnits="userSpaceOnUse" x="0" y="0" width="111" height="111">
<path d="M55.5324 110.704C85.908 110.704 110.532 86.08 110.532 55.7043C110.532 25.3287 85.908 0.704346 55.5324 0.704346C25.1567 0.704346 0.532373 25.3287 0.532373 55.7043C0.532373 86.08 25.1567 110.704 55.5324 110.704Z" fill="white"/>
</mask>
<g mask="url(#mask1_264_372)">
<path d="M118.077 48.3306C116.983 45.0428 114.672 42.1145 111.622 41.0476C108.25 39.8658 104.411 41.1337 101.753 43.6853C99.0948 46.237 97.5015 49.9014 96.6924 53.6632C95.8833 57.4255 95.797 61.3227 95.7102 65.187C95.5947 62.2635 95.1408 59.3883 94.0676 56.7058C92.9943 54.0274 91.1125 51.6349 88.615 50.5634C86.1222 49.4918 83.0053 49.9704 81.1854 52.1171C84.5414 47.819 83.3153 40.4871 79.6582 36.4873C77.7056 34.3529 75.1218 33.0727 72.3857 32.6106C72.522 33.6698 72.5963 34.7331 72.6249 35.7923C72.7361 39.7715 71.5725 42.8631 71.7664 46.8376C67.6221 47.6516 63.5896 45.5538 62.1659 41.6153C59.9123 41.8115 57.6254 41.521 55.4794 40.8136C54.7655 41.7703 54.1093 42.7806 53.5108 43.8233C50.7658 48.6076 49.1725 54.0669 47.8851 59.5386C46.8493 56.8272 45.0246 55.5593 43.9305 52.8769C42.4402 49.2413 39.6791 46.2482 36.3356 44.649C33.3306 43.2097 29.8306 42.9108 26.7351 44.105C23.6397 45.2992 21.0226 48.0471 20.057 51.4699C19.1449 54.7212 19.838 58.5035 21.9512 60.9862C19.5489 58.4959 15.9376 58.3202 12.6149 59.0275C9.13157 59.7637 6.07658 62.5812 4.83435 66.2085C2.61762 58.3403 -5.34856 52.9505 -12.7948 54.2797C-7.18096 75.8386 4.57794 94.2369 22.6033 104.992C40.6245 115.746 63.1606 117.546 82.0528 108.742C100.945 99.9414 115.548 80.3901 118.665 58.2377C119.151 54.7837 119.167 51.6226 118.077 48.3306Z" fill="#362F36"/>
</g>
<mask id="mask2_264_372" style="mask-type:luminance" maskUnits="userSpaceOnUse" x="0" y="0" width="111" height="111">
<path d="M55.5324 110.704C85.908 110.704 110.532 86.08 110.532 55.7043C110.532 25.3287 85.908 0.704346 55.5324 0.704346C25.1567 0.704346 0.532373 25.3287 0.532373 55.7043C0.532373 86.08 25.1567 110.704 55.5324 110.704Z" fill="white"/>
</mask>
<g mask="url(#mask2_264_372)">
<path d="M22.4664 154.501H87.5577C86.8759 151.539 86.4345 148.559 86.632 145.52C87.221 136.472 93.3738 128.44 96.2277 120.024C97.3938 116.586 98.0089 113.083 97.4693 109.419C96.007 99.5006 86.5124 93.0287 77.2826 89.9207C62.7953 85.042 46.7255 85.3467 32.4197 90.7724C22.6425 94.4816 15.4319 103.308 13.706 113.946C11.5553 127.203 20.7655 134.528 22.16 146.531C22.4682 149.182 22.5414 151.841 22.4664 154.501Z" fill="white"/>
<path d="M103.77 154.5C108.134 148.221 111.121 140.934 112.195 133.274C108.743 125.341 104.041 115.342 99.3488 108.121C97.7062 105.593 95.9268 103.051 93.4393 101.418C90.9519 99.7857 87.578 99.2481 85.0769 100.858C83.2183 102.054 82.1475 104.183 81.236 106.242C74.2092 122.119 72.1597 138.188 74.4615 154.5H103.77Z" fill="white"/>
<path d="M7.05053 154.501H31.5714C32.2336 151.096 32.9189 147.78 33.4686 144.71C36.1631 129.66 41.398 114.837 40.4246 99.5183C40.3289 98.0065 40.1403 96.4097 39.3073 95.2255C38.3905 93.9223 36.8628 93.3795 35.401 93.2203C29.0519 92.5289 23.4708 97.6239 18.6803 102.409C15.7366 105.349 12.7929 108.29 9.84912 111.23C3.0841 117.987 -7.05657 126.324 -3.74635 135.843C-1.29522 142.893 2.50582 149.005 7.05053 154.501Z" fill="white"/>
<path d="M72.6047 89.155C66.4394 85.6732 62.8531 77.8881 64.1257 70.7466H51.8016C51.9622 75.7178 49.0887 79.2502 46.4401 83.4033C45.0592 85.5683 43.413 87.8164 41.0017 88.5302C44.4851 93.3517 50.5148 95.763 56.335 95.9157C62.1553 96.0683 68.8893 93.7884 72.6047 89.155Z" fill="#D85B4E"/>
<path d="M45.9028 99.8343C49.7264 101.845 53.8511 102.765 58.1745 102.519C58.7224 102.488 58.7266 101.638 58.1745 101.67C53.985 101.909 50.0399 101.05 46.3353 99.1016C45.8486 98.8452 45.4149 99.5779 45.9028 99.8343Z" fill="#472A1C"/>
<path d="M67.4161 99.3237C68.6845 98.7997 69.9524 98.2751 71.2208 97.7511C71.7223 97.5436 71.5022 96.7219 70.9929 96.9324C69.7245 97.4564 68.4567 97.981 67.1883 98.505C66.6874 98.7124 66.9075 99.5347 67.4161 99.3237Z" fill="#472A1C"/>
<path d="M68.8006 53.5966C68.7679 56.6127 71.0572 59.0853 73.9147 59.1201C76.7721 59.1549 79.115 56.7382 79.1477 53.7221C79.1804 50.706 76.8911 48.2334 74.0336 48.1986C71.1768 48.1644 68.8339 50.5811 68.8006 53.5966Z" fill="#F3725F"/>
<path d="M70.7211 62.2352C70.7122 62.389 70.7009 62.5435 70.6866 62.6967C70.6795 62.7745 70.6723 62.8535 70.664 62.9307C70.6586 62.9791 70.6545 63.0274 70.6479 63.0757C70.6313 63.2237 70.6128 63.3687 70.5908 63.5148C70.5843 63.5591 70.5777 63.6015 70.5712 63.6457C70.5379 63.8579 70.5004 64.0701 70.4581 64.2793C70.4135 64.5021 70.3641 64.7232 70.3094 64.9424C70.2904 65.0208 70.2701 65.0975 70.2499 65.1741C70.238 65.2206 70.2249 65.2672 70.2118 65.3138C70.1613 65.5 70.1059 65.6834 70.047 65.8661C69.9066 66.3087 69.7448 66.7408 69.5634 67.164C69.5205 67.266 69.4753 67.3673 69.4295 67.4675C69.016 68.3729 68.5157 69.2258 67.9386 70.0133C67.8124 70.1836 67.6839 70.351 67.5536 70.5137C67.4823 70.6027 67.4103 70.6882 67.3377 70.776C67.2163 70.9186 67.0932 71.0583 66.9664 71.1968C66.6583 71.5352 66.3334 71.8558 65.9955 72.16C65.8367 72.3014 65.676 72.4388 65.5124 72.5737C64.8419 73.1213 64.1244 73.6035 63.3641 74.0108C62.7918 74.3196 62.1963 74.5837 61.5805 74.8036C61.4455 74.8519 61.3098 74.8979 61.1742 74.9403C61.0772 74.9715 60.9802 75.0016 60.8826 75.0287C60.8303 75.0446 60.7767 75.0611 60.7232 75.0759C60.6738 75.0894 60.6238 75.103 60.5745 75.1154C60.4162 75.1578 60.258 75.1985 60.0979 75.2338C59.1484 75.4478 58.1656 75.5533 57.1583 75.5415C56.937 75.5386 56.7181 75.5303 56.4998 75.5162C54.0433 75.3588 51.7617 74.4982 49.8347 73.1255C46.2044 70.5402 43.8241 66.139 43.8782 61.1966L43.9151 57.8428L44.0234 47.9793L44.0567 44.8943L44.1031 40.6368C44.1061 40.4028 44.1138 40.1694 44.1275 39.939C44.134 39.8252 44.1417 39.7103 44.1513 39.5965C44.1578 39.5051 44.1656 39.4167 44.1763 39.3265C44.184 39.2364 44.1947 39.145 44.2066 39.0554C44.2078 39.033 44.2102 39.0112 44.2143 38.9906C44.2203 38.9352 44.2274 38.8798 44.2357 38.8249C44.2435 38.7583 44.2524 38.6935 44.2631 38.6275C44.2679 38.5874 44.2744 38.5473 44.2804 38.5072C44.2952 38.4106 44.3113 38.3139 44.3286 38.2178C44.3422 38.1365 44.3577 38.0552 44.3744 37.9744C44.3821 37.9261 44.3916 37.8795 44.4023 37.8312C44.4398 37.6425 44.4821 37.4575 44.5285 37.2724C44.5529 37.1681 44.5802 37.0626 44.6082 36.96C44.6332 36.8639 44.6599 36.7696 44.6879 36.6741C44.7147 36.581 44.7432 36.4885 44.7712 36.3953C44.7724 36.3924 44.773 36.39 44.7742 36.3871C44.8033 36.2939 44.8337 36.2026 44.864 36.11C44.8955 36.0175 44.9277 35.9244 44.9604 35.8318C44.9931 35.7405 45.0276 35.6479 45.0621 35.5572C45.1323 35.3715 45.2073 35.1888 45.2852 35.0072C45.3001 34.9724 45.3162 34.9383 45.331 34.9041C45.3965 34.7549 45.4637 34.6064 45.5333 34.4602C45.5494 34.4261 45.566 34.3925 45.5827 34.3583C45.6565 34.2074 45.7326 34.0577 45.8111 33.9097C45.8236 33.8861 45.8361 33.8631 45.8486 33.8396C48.1885 29.4902 52.6422 26.5607 57.6932 26.622C63.3736 26.6916 68.2206 30.5235 70.1172 35.836C70.6884 37.4327 70.9924 39.1633 70.9721 40.9657L70.7479 61.5249C70.7431 61.7631 70.7348 61.9994 70.7211 62.2352Z" fill="#F3725F"/>
<path d="M36.5712 52.8222C36.5385 55.8383 38.8278 58.3109 41.6852 58.3463C44.5427 58.3811 46.8856 55.9644 46.9183 52.9483C46.951 49.9322 44.6617 47.4596 41.8042 47.4248C38.9467 47.39 36.6039 49.8067 36.5712 52.8222Z" fill="#F3725F"/>
<path d="M57.6379 54.426L57.7843 57.2995H59.979L58.2233 59.8706" stroke="#472A1C" stroke-width="0.9873" stroke-miterlimit="10" stroke-linecap="round" stroke-linejoin="round"/>
<path d="M46.4638 53.4647C46.4894 54.2292 47.8203 54.8369 49.6741 55.0296C50.2172 55.0862 50.8068 55.1074 51.422 55.0862C52.1448 55.0614 52.8302 54.9801 53.4448 54.8545C55.1296 54.5139 56.2862 53.8478 56.2624 53.124C56.2404 52.4497 55.2016 51.8986 53.6839 51.6457C52.9766 51.5272 52.1651 51.4742 51.3036 51.5042C50.5278 51.5308 49.7966 51.6227 49.1493 51.7618C47.5365 52.1102 46.44 52.7603 46.4638 53.4647Z" fill="white"/>
<path d="M48.7257 53.1151C48.7257 53.8814 49.0928 54.5687 49.674 55.0296C50.2172 55.0862 50.8068 55.1074 51.4219 55.0862C52.1448 55.0614 52.8301 54.9801 53.4447 54.8545C53.9093 54.4024 54.1931 53.7894 54.1931 53.1151C54.1931 52.5676 54.0051 52.0589 53.6839 51.6457C52.9765 51.5272 52.165 51.4742 51.3035 51.5042C50.5277 51.5308 49.7966 51.6227 49.1493 51.7618C48.8815 52.1544 48.7257 52.6188 48.7257 53.1151Z" fill="#362F36"/>
<path d="M59.3162 52.9553C59.3418 53.7198 60.6726 54.3275 62.5265 54.5196C63.0696 54.5762 63.6592 54.5974 64.2744 54.5762C64.9972 54.5514 65.6826 54.4701 66.2978 54.3451C67.9826 54.0045 69.1392 53.3384 69.1154 52.6146C69.0934 51.9403 68.054 51.3892 66.5369 51.1363C65.8295 51.0178 65.0181 50.9648 64.1566 50.9948C63.3808 51.0214 62.6496 51.1133 62.0023 51.253C60.3889 51.6008 59.2924 52.2509 59.3162 52.9553Z" fill="white"/>
<path d="M61.5781 52.6055C61.5781 53.3718 61.9452 54.059 62.5264 54.52C63.0696 54.5766 63.6592 54.5978 64.2743 54.5766C64.9972 54.5518 65.6826 54.4705 66.2977 54.3455C66.7624 53.8934 67.0461 53.2804 67.0461 52.6061C67.0461 52.0585 66.8582 51.5498 66.5369 51.1367C65.8295 51.0182 65.018 50.9651 64.1565 50.9952C63.3807 51.0217 62.6496 51.1137 62.0023 51.2534C61.734 51.6448 61.5781 52.1092 61.5781 52.6055Z" fill="#362F36"/>
<path d="M47.0695 47.8226C49.1422 47.2049 51.3542 47.0522 53.4936 47.38" stroke="#383138" stroke-width="3.1686" stroke-miterlimit="10" stroke-linecap="round" stroke-linejoin="round"/>
<path d="M60.5031 47.433C62.5758 46.8147 64.7878 46.6627 66.9272 46.9898" stroke="#383138" stroke-width="3.1686" stroke-miterlimit="10" stroke-linecap="round" stroke-linejoin="round"/>
<path d="M49.3725 42.377C48.0547 43.8211 46.2699 44.7642 44.4523 45.5033C44.2084 46.8832 44.5945 48.2883 44.6398 49.6888C44.685 51.0887 44.2316 52.6943 42.9448 53.2749C42.8936 50.1315 42.8419 46.9881 42.7907 43.8447C42.7104 38.9406 41.9036 34.3743 46.7292 31.2557C47.5859 30.7016 48.6437 30.2719 49.617 30.5843C50.4041 30.8372 50.9705 31.5309 51.3316 32.2683C52.8011 35.2744 51.5761 39.9615 49.3725 42.377Z" fill="#383138" stroke="#383138" stroke-width="3.1686" stroke-miterlimit="10" stroke-linecap="round" stroke-linejoin="round"/>
<path d="M68.8709 41.1857C67.5281 44.1022 68.4181 47.8657 70.9293 49.8874V38.808" fill="#383138"/>
<path d="M68.8709 41.1857C67.5281 44.1022 68.4181 47.8657 70.9293 49.8874V38.808" stroke="#383138" stroke-width="3.1686" stroke-miterlimit="10" stroke-linecap="round" stroke-linejoin="round"/>
</g>
<path d="M71.7658 46.8381C67.6215 47.6521 63.589 45.5543 62.1654 41.6158C59.9117 41.812 57.6248 41.5214 55.4789 40.8141C53.2003 40.0573 51.0829 38.8307 49.3367 37.1992C49.3034 37.1703 49.2707 37.1379 49.2374 37.1049C42.7282 30.9218 46.2943 19.9543 55.2016 18.5515C55.8953 18.4413 56.5843 18.38 57.2613 18.3593C62.016 18.2409 66.8082 20.5514 69.508 24.4322C71.1798 26.8412 72.0175 29.6911 72.3851 32.6111C72.5214 33.6703 72.5958 34.7336 72.6243 35.7928C72.7362 39.7714 71.5719 42.863 71.7658 46.8381Z" fill="#362F36"/>
</svg>
