<svg width="133" height="133" viewBox="0 0 133 133" fill="none" xmlns="http://www.w3.org/2000/svg">
<mask id="mask0_312_266" style="mask-type:luminance" maskUnits="userSpaceOnUse" x="10" y="12" width="110" height="110">
<path d="M117.542 79.458C124.422 50.4397 106.476 21.3383 77.4578 14.458C48.4396 7.57771 19.3381 25.5241 12.4578 54.5423C5.57756 83.5605 23.5239 112.662 52.5422 119.542C81.5604 126.423 110.662 108.476 117.542 79.458Z" fill="white"/>
</mask>
<g mask="url(#mask0_312_266)">
<path d="M123.3 -15.7446H4.67712V147.262H123.3V-15.7446Z" fill="#FFA9A9"/>
</g>
<mask id="mask1_312_266" style="mask-type:luminance" maskUnits="userSpaceOnUse" x="11" y="11" width="111" height="111">
<path d="M119.721 78.9458C126.729 49.3896 108.45 19.7485 78.8939 12.7407C49.3377 5.73285 19.6966 24.0119 12.6888 53.5682C5.68097 83.1244 23.9601 112.765 53.5163 119.773C83.0725 126.781 112.714 108.502 119.721 78.9458Z" fill="white"/>
</mask>
<g mask="url(#mask1_312_266)">
<path d="M115.955 149.224H17.4079C0.230262 149.224 -13.8248 135.17 -13.8248 117.991C-13.8248 100.814 0.229674 86.7588 17.4079 86.7588H115.955C133.132 86.7588 147.187 100.813 147.187 117.991C147.187 135.17 133.132 149.224 115.955 149.224Z" fill="#362F36"/>
<path d="M53.5512 53.8464C53.5047 56.92 50.9749 59.3745 47.9012 59.328C44.827 59.2815 42.3732 56.7517 42.4197 53.678C42.4662 50.6044 44.9959 48.15 48.0696 48.1965C51.1432 48.2429 53.5977 50.7721 53.5512 53.8464Z" fill="#F05841"/>
<path d="M49.3586 89.1156C54.62 93.0704 60.0628 97.0634 67.0483 95.9357C71.6411 95.1941 76.0467 93.1887 79.0321 89.8208C75.6582 85.7306 72.7941 75.4143 73.3015 69.9344C73.6117 66.5824 77.211 64.3181 77.723 60.9907C76.1427 61.3168 71.0878 64.8395 69.4739 64.8254C68.4568 64.8166 67.4538 65.0373 66.4608 65.2575C64.1724 65.7642 55.5559 62.524 53.2674 63.0308C58.1139 67.2051 53.4976 80.5704 49.3586 89.1156Z" fill="#F05841"/>
<path d="M49.3586 89.1156C54.62 93.0704 60.0628 97.0634 67.0483 95.9357C71.6411 95.1941 76.0467 93.1887 79.0321 89.8208C75.6582 85.7306 72.7941 75.4143 73.3015 69.9344C73.6117 66.5824 77.211 64.3181 77.723 60.9907C76.1427 61.3168 71.0878 64.8395 69.4739 64.8254C68.4568 64.8166 67.4538 65.0373 66.4608 65.2575C64.1724 65.7642 55.5559 62.524 53.2674 63.0308C58.1139 67.2051 53.4976 80.5704 49.3586 89.1156Z" fill="#CE3B2C"/>
<path d="M72.9225 35.0794C68.8182 36.8964 67.3809 41.8276 68.8235 45.6812C70.2662 49.5347 73.8966 52.4118 77.7637 54.5519C78.4006 49.3569 78.6749 44.8413 79.3111 39.6463C79.5501 37.6945 79.4771 35.2206 77.4712 34.4272C76.3452 33.9811 74.0338 34.5879 72.9225 35.0794Z" fill="#2D1A14"/>
<path d="M80.4689 41.348L80.3994 45.6889L80.3547 48.8332L80.2893 53.2882L80.2034 58.887L80.1663 61.1536L80.1498 62.3049C80.0721 67.3398 77.3935 71.7584 73.4198 74.2905C71.3085 75.6343 68.8341 76.4465 66.1878 76.5366C65.9511 76.5448 65.7139 76.5448 65.4773 76.5407C64.3949 76.5242 63.3419 76.3853 62.3248 76.1446C62.1535 76.104 61.9858 76.0587 61.8145 76.0098C61.7615 75.9933 61.7085 75.981 61.655 75.9651C61.5979 75.9486 61.5408 75.928 61.4837 75.9121C61.3819 75.8833 61.2753 75.8468 61.1735 75.8138C61.0305 75.765 60.8833 75.7155 60.7409 75.6625C60.0834 75.4218 59.4507 75.1358 58.8421 74.805C58.0375 74.3682 57.2782 73.8538 56.576 73.2776C56.4006 73.1345 56.2328 72.9915 56.0657 72.8449C55.7101 72.5224 55.3676 72.1875 55.045 71.8319C54.9144 71.6889 54.7837 71.5418 54.6613 71.3911C54.5836 71.301 54.5059 71.2116 54.4323 71.1215C54.2975 70.9502 54.1627 70.7742 54.0321 70.5988C53.4317 69.7819 52.9214 68.896 52.4964 67.9608C52.4517 67.8583 52.4064 67.7565 52.3616 67.6506C52.178 67.2138 52.0185 66.7683 51.8796 66.315C51.8184 66.1273 51.7654 65.9354 51.7165 65.7476C51.7042 65.6988 51.6877 65.6493 51.68 65.6005C51.6594 65.5228 51.6388 65.4451 51.623 65.3639C51.5659 65.139 51.5211 64.9148 51.4799 64.6858C51.4393 64.4692 51.4022 64.2532 51.374 64.0366C51.3699 63.9877 51.3616 63.9465 51.3575 63.9018C51.3369 63.7505 51.321 63.6034 51.3086 63.4527C51.3004 63.4038 51.3004 63.355 51.2963 63.3055C51.288 63.2237 51.2798 63.146 51.2757 63.0648C51.2633 62.9053 51.2592 62.7505 51.2509 62.591C51.2427 62.3544 51.2386 62.1089 51.2427 61.8682L51.2757 59.7981L51.4063 51.3247L51.5452 42.0507L51.5617 40.9153C51.5865 39.4209 51.8396 37.9835 52.2845 36.6315C52.3864 36.3214 52.497 36.0147 52.6194 35.7127C54.8043 30.3512 60.1211 26.586 66.2343 26.6796C71.6652 26.7614 76.3781 29.8727 78.7749 34.3731L78.8155 34.4467C78.8932 34.5979 78.9709 34.7527 79.0445 34.9081C79.0651 34.9446 79.081 34.9776 79.0974 35.0141C79.1669 35.1653 79.2364 35.3201 79.3017 35.4714L79.3505 35.5815C79.4282 35.7651 79.5018 35.9529 79.5754 36.1454C79.6083 36.239 79.6448 36.3331 79.6772 36.4273C79.7102 36.525 79.7384 36.6192 79.7755 36.7134C79.8043 36.8117 79.8326 36.9052 79.8614 36.9994C79.8656 37.0035 79.8655 37.0077 79.8655 37.0077C79.8944 37.106 79.9226 37.1995 79.9474 37.2978C79.9756 37.3961 80.0004 37.4897 80.0251 37.588C80.0539 37.694 80.078 37.8046 80.1028 37.9106C80.1475 38.0983 80.1887 38.2902 80.2252 38.4862C80.2334 38.5309 80.2417 38.5804 80.2499 38.6292C80.2664 38.7152 80.2782 38.7964 80.2905 38.8782C80.307 38.9765 80.3229 39.0783 80.3353 39.176C80.3394 39.2167 80.3476 39.2579 80.3517 39.2985C80.36 39.3638 80.3682 39.4333 80.3765 39.4986C80.3847 39.5557 80.3888 39.6128 80.3929 39.6699C80.3971 39.6905 80.3971 39.7146 80.4012 39.7352C80.4094 39.8294 80.4218 39.9188 80.4259 40.013C80.4341 40.1072 80.4383 40.1967 80.4465 40.2909C80.4548 40.405 80.4589 40.5233 80.463 40.6381C80.4689 40.8747 80.4689 41.1113 80.4689 41.348Z" fill="#F05841"/>
<path d="M88.2354 53.9816C88.1889 57.0559 85.6591 59.5097 82.5855 59.4632C79.5118 59.4167 77.0574 56.887 77.1039 53.8133C77.1504 50.7391 79.6801 48.2852 82.7538 48.3317C85.828 48.3782 88.2819 50.9074 88.2354 53.9816Z" fill="#F05841"/>
<path d="M77.5099 54.3812C77.5093 55.204 76.0532 55.9068 74.0013 56.1835C73.3998 56.2647 72.7458 56.3094 72.0625 56.31C71.259 56.3106 70.495 56.2494 69.8076 56.1375C67.9241 55.835 66.6156 55.1628 66.6156 54.3841C66.6156 53.6584 67.7492 53.0274 69.425 52.699C70.206 52.5453 71.1054 52.4576 72.0631 52.4576C72.9254 52.4571 73.7411 52.5283 74.4651 52.6537C76.2692 52.9662 77.5111 53.6231 77.5099 54.3812Z" fill="white"/>
<path d="M74.9849 54.0905C75.0131 54.9139 74.63 55.6662 74.0013 56.183C73.3998 56.2642 72.7459 56.3089 72.0625 56.3095C71.2591 56.3101 70.4951 56.2489 69.8076 56.1371C69.2749 55.6685 68.9377 55.0211 68.9129 54.2959C68.8929 53.7079 69.083 53.154 69.425 52.6979C70.2061 52.5442 71.1054 52.4565 72.0631 52.4565C72.9254 52.456 73.7412 52.5272 74.4652 52.6526C74.7777 53.064 74.9672 53.5572 74.9849 54.0905Z" fill="#362F36"/>
<path d="M63.8711 54.4169C63.8705 55.2398 62.4143 55.9426 60.3624 56.2192C59.7609 56.3004 59.107 56.3452 58.4236 56.3458C57.6202 56.3464 56.8562 56.2851 56.1681 56.1733C54.2846 55.8702 52.9761 55.1986 52.9761 54.4199C52.9761 53.6941 54.1098 53.0632 55.7855 52.7347C56.5666 52.5811 57.466 52.4934 58.4236 52.4934C59.2859 52.4928 60.1017 52.564 60.8257 52.6894C62.6303 53.002 63.8716 53.6588 63.8711 54.4169Z" fill="white"/>
<path d="M61.3459 54.127C61.3736 54.9504 60.991 55.7027 60.3624 56.2194C59.7609 56.3007 59.1069 56.3454 58.4236 56.346C57.6201 56.3466 56.8561 56.2854 56.1681 56.1735C55.6354 55.705 55.2981 55.0576 55.2734 54.3324C55.2534 53.7444 55.4435 53.1905 55.7855 52.7344C56.5666 52.5807 57.4659 52.493 58.4236 52.493C59.2859 52.4925 60.1017 52.5637 60.8256 52.6891C61.1382 53.1005 61.3277 53.5937 61.3459 54.127Z" fill="#362F36"/>
<path d="M61.3536 59.9724L65.1524 63.5793L68.8276 59.9724H61.3536Z" fill="#F05841"/>
<path d="M61.8492 50.6402L56.8755 50.8086C56.1733 50.8321 55.5789 50.277 55.5553 49.5748C55.5312 48.8727 56.0868 48.2782 56.789 48.2546L61.7627 48.0863C62.4648 48.0627 63.0593 48.6178 63.0829 49.32C63.1064 50.0222 62.5514 50.6161 61.8492 50.6402Z" fill="#362F36"/>
<path d="M74.0761 50.091L69.1025 50.2594C68.4003 50.2829 67.8058 49.7279 67.7823 49.0257C67.7587 48.3235 68.3138 47.729 69.016 47.7054L73.9896 47.5371C74.6918 47.5136 75.2863 48.0686 75.3098 48.7708C75.334 49.473 74.7789 50.0669 74.0761 50.091Z" fill="#362F36"/>
</g>
<path d="M60.8804 62.6203C60.7945 64.5456 61.8781 66.4773 63.5662 67.4073C65.2543 68.3373 67.4656 68.2219 69.0478 67.1207C70.6293 66.0194 71.5058 63.9852 71.2191 62.0793L60.8804 62.6203Z" fill="white"/>
<path d="M62.5031 66.6069C62.8627 66.2673 63.2383 65.986 63.6244 65.7623C65.0076 64.6958 66.8428 64.7493 68.3514 65.5204C68.8747 65.7434 69.3779 66.0442 69.8464 66.4145C70.9094 65.2655 71.4509 63.6316 71.2179 62.0789L71.0083 62.09C69.4538 65.737 63.5108 65.5233 60.878 62.8276C60.8768 64.2372 61.4948 65.6257 62.5031 66.6069Z" fill="#362F36"/>
<path d="M63.7156 59.9652C64.7775 60.6168 66.5627 60.6945 67.6057 59.9705" stroke="#472A1C" stroke-width="0.7905" stroke-miterlimit="10" stroke-linecap="round" stroke-linejoin="round"/>
<path d="M72.5176 44.2603C68.6258 44.2638 65.5703 48.0708 66.1966 52.294C66.3426 53.2805 66.6263 54.2405 67.0495 55.1252C68.7034 58.5814 72.2668 60.7398 75.819 60.7003C79.3706 60.6603 82.795 58.5396 84.8804 55.3783C84.901 55.3465 84.9222 55.3147 84.9428 55.2829C87.9346 50.663 84.8398 44.2491 79.6819 44.2538L72.5176 44.2603Z" stroke="#BA2111" stroke-width="1.6464" stroke-miterlimit="10" stroke-linecap="round" stroke-linejoin="round"/>
<path d="M50.7141 44.4222C46.8223 44.4258 43.7669 48.2328 44.3932 52.456C44.5398 53.4425 44.8229 54.4025 45.2461 55.2871C46.9 58.7434 50.464 60.9018 54.0156 60.8623C57.5672 60.8223 60.9916 58.7016 63.077 55.5402C63.0976 55.5085 63.1188 55.4767 63.1394 55.4449C66.1312 50.825 63.0364 44.4111 57.8785 44.4158L50.7141 44.4222Z" stroke="#BA2111" stroke-width="1.6464" stroke-miterlimit="10" stroke-linecap="round" stroke-linejoin="round"/>
<path d="M59.6266 44.5769H70.7705" stroke="#BA2111" stroke-width="1.6464" stroke-miterlimit="10" stroke-linecap="round" stroke-linejoin="round"/>
<path d="M46.7058 46.3539L51.3898 49.4222" stroke="#BA2111" stroke-width="1.6464" stroke-miterlimit="10" stroke-linecap="round" stroke-linejoin="round"/>
<path d="M80.3541 48.8337L83.8527 46.1921" stroke="#BA2111" stroke-width="1.6464" stroke-miterlimit="10" stroke-linecap="round" stroke-linejoin="round"/>
<path d="M79.855 19.4475C77.7937 19.4475 75.8749 20.0537 74.2633 21.0944C72.9631 17.4622 69.4922 14.8629 65.4132 14.8629C60.2224 14.8629 56.0145 19.0708 56.0145 24.2616C56.0145 24.4865 56.0251 24.7084 56.0404 24.9285C54.792 24.1757 53.3299 23.7425 51.766 23.7425C47.1873 23.7425 43.475 27.4542 43.475 32.0334C43.475 36.6121 47.1867 40.3244 51.766 40.3244C53.4129 40.3244 54.9462 39.8424 56.2364 39.0142C56.9827 43.4587 60.8457 46.8461 65.5027 46.8461C70.2391 46.8461 74.155 43.3421 74.8048 38.7852C76.2981 39.624 78.0198 40.1043 79.8544 40.1043C85.5585 40.1043 90.1831 35.4803 90.1831 29.7756C90.1837 24.0715 85.5597 19.4475 79.855 19.4475Z" fill="#BA2111"/>
<path d="M42.5074 88.9878C46.9913 96.3664 55.5301 101.095 64.1636 100.982C72.7971 100.868 81.2082 95.9161 85.4967 88.4221" stroke="#EAAE4E" stroke-width="2.0164" stroke-miterlimit="10" stroke-linecap="round" stroke-linejoin="round"/>
</svg>
