<svg width="71" height="70" viewBox="0 0 71 70" fill="none" xmlns="http://www.w3.org/2000/svg">
<g id="Group">
<g id="Group_2">
<g id="Clip path group">
<mask id="mask0_257_1153" style="mask-type:luminance" maskUnits="userSpaceOnUse" x="0" y="0" width="71" height="70">
<g id="SVGID_00000131342885949771325530000013949556083474652347_">
<path id="Vector" d="M35.0508 70C54.3807 70 70.0508 54.33 70.0508 35C70.0508 15.67 54.3807 0 35.0508 0C15.7208 0 0.0507812 15.67 0.0507812 35C0.0507812 54.33 15.7208 70 35.0508 70Z" fill="white"/>
</g>
</mask>
<g mask="url(#mask0_257_1153)">
<path id="Vector_2" d="M35.0508 70C54.3807 70 70.0508 54.33 70.0508 35C70.0508 15.67 54.3807 0 35.0508 0C15.7208 0 0.0507812 15.67 0.0507812 35C0.0507812 54.33 15.7208 70 35.0508 70Z" fill="#FFA9A9"/>
</g>
</g>
<g id="Clip path group_2">
<mask id="mask1_257_1153" style="mask-type:luminance" maskUnits="userSpaceOnUse" x="0" y="0" width="71" height="70">
<g id="SVGID_00000131342885949771325530000013949556083474652347__2">
<path id="Vector_3" d="M35.0508 70C54.3807 70 70.0508 54.33 70.0508 35C70.0508 15.67 54.3807 0 35.0508 0C15.7208 0 0.0507812 15.67 0.0507812 35C0.0507812 54.33 15.7208 70 35.0508 70Z" fill="white"/>
</g>
</mask>
<g mask="url(#mask1_257_1153)">
<path id="Vector_4" d="M14.0095 97.8703H55.4312C54.9973 95.9858 54.7164 94.089 54.8421 92.155C55.2169 86.3974 59.1324 81.2864 60.9485 75.9309C61.6905 73.7426 62.082 71.5131 61.7386 69.1823C60.808 62.8703 54.766 58.7518 48.8925 56.7739C39.6733 53.6693 29.4471 53.8632 20.3434 57.3159C14.1215 59.6764 9.53296 65.293 8.43466 72.0626C7.06603 80.4991 12.9274 85.1603 13.8145 92.7987C14.0102 94.4858 14.0568 96.1771 14.0095 97.8703Z" fill="#F3725F"/>
</g>
</g>
<g id="Clip path group_3">
<mask id="mask2_257_1153" style="mask-type:luminance" maskUnits="userSpaceOnUse" x="0" y="0" width="71" height="70">
<g id="SVGID_00000131342885949771325530000013949556083474652347__3">
<path id="Vector_5" d="M35.0508 70C54.3807 70 70.0508 54.33 70.0508 35C70.0508 15.67 54.3807 0 35.0508 0C15.7208 0 0.0507812 15.67 0.0507812 35C0.0507812 54.33 15.7208 70 35.0508 70Z" fill="white"/>
</g>
</mask>
<g mask="url(#mask2_257_1153)">
<path id="Vector_6" d="M45.9147 56.2868C41.9913 54.0711 39.7091 49.1169 40.519 44.5723H32.6764C32.7786 47.7358 30.95 49.9837 29.2644 52.6266C28.3857 54.004 27.3382 55.4349 25.8037 55.8892C28.0204 58.9578 31.8574 60.4919 35.5612 60.589C39.2647 60.6862 43.5504 59.2353 45.9147 56.2868Z" fill="#DD5F52"/>
</g>
</g>
<g id="Clip path group_4">
<mask id="mask3_257_1153" style="mask-type:luminance" maskUnits="userSpaceOnUse" x="0" y="0" width="71" height="70">
<g id="SVGID_00000131342885949771325530000013949556083474652347__4">
<path id="Vector_7" d="M35.0508 70C54.3807 70 70.0508 54.33 70.0508 35C70.0508 15.67 54.3807 0 35.0508 0C15.7208 0 0.0507812 15.67 0.0507812 35C0.0507812 54.33 15.7208 70 35.0508 70Z" fill="white"/>
</g>
</mask>
<g mask="url(#mask3_257_1153)">
<path id="Vector_8" d="M14.0095 97.8703H55.4312C54.9973 95.9858 54.7164 94.089 54.8421 92.155C55.2169 86.3974 59.1324 81.2864 60.9485 75.9309C61.6905 73.7426 62.082 71.5131 61.7386 69.1823C60.808 62.8703 54.766 58.7518 48.8925 56.7739C39.6733 53.6693 29.4471 53.8632 20.3434 57.3159C14.1215 59.6764 9.53296 65.293 8.43466 72.0626C7.06603 80.4991 12.9274 85.1603 13.8145 92.7987C14.0102 94.4858 14.0568 96.1771 14.0095 97.8703Z" fill="#5433F6"/>
</g>
</g>
<g id="Clip path group_5">
<mask id="mask4_257_1153" style="mask-type:luminance" maskUnits="userSpaceOnUse" x="0" y="0" width="71" height="70">
<g id="SVGID_00000131342885949771325530000013949556083474652347__5">
<path id="Vector_9" d="M35.0508 70C54.3807 70 70.0508 54.33 70.0508 35C70.0508 15.67 54.3807 0 35.0508 0C15.7208 0 0.0507812 15.67 0.0507812 35C0.0507812 54.33 15.7208 70 35.0508 70Z" fill="white"/>
</g>
</mask>
<g mask="url(#mask4_257_1153)">
<path id="Vector_10" d="M40.8288 49.6686H31.158C30.584 50.6457 29.9139 51.6067 29.2635 52.6262C28.3848 54.0035 27.3372 55.4345 25.8027 55.8887C28.0194 58.9573 31.8565 60.4914 35.5603 60.5886C39.2641 60.6857 43.5501 59.2349 45.9145 56.2867C43.4551 54.8981 41.6413 52.4337 40.8288 49.6686Z" fill="#5433F6"/>
</g>
</g>
<g id="Clip path group_6">
<mask id="mask5_257_1153" style="mask-type:luminance" maskUnits="userSpaceOnUse" x="0" y="0" width="71" height="70">
<g id="SVGID_00000131342885949771325530000013949556083474652347__6">
<path id="Vector_11" d="M35.0508 70C54.3807 70 70.0508 54.33 70.0508 35C70.0508 15.67 54.3807 0 35.0508 0C15.7208 0 0.0507812 15.67 0.0507812 35C0.0507812 54.33 15.7208 70 35.0508 70Z" fill="white"/>
</g>
</mask>
<g mask="url(#mask5_257_1153)">
<path id="Vector_12" d="M43.4944 33.6586C43.4735 35.578 44.9304 37.1515 46.7488 37.1736C48.5672 37.1957 50.0581 35.6579 50.0789 33.7385C50.0997 31.8192 48.6429 30.2457 46.8245 30.2236C45.0065 30.2018 43.5152 31.7397 43.4944 33.6586Z" fill="#F3725F"/>
</g>
</g>
<g id="Clip path group_7">
<mask id="mask6_257_1153" style="mask-type:luminance" maskUnits="userSpaceOnUse" x="0" y="0" width="71" height="70">
<g id="SVGID_00000131342885949771325530000013949556083474652347__7">
<path id="Vector_13" d="M35.0508 70C54.3807 70 70.0508 54.33 70.0508 35C70.0508 15.67 54.3807 0 35.0508 0C15.7208 0 0.0507812 15.67 0.0507812 35C0.0507812 54.33 15.7208 70 35.0508 70Z" fill="white"/>
</g>
</mask>
<g mask="url(#mask6_257_1153)">
<path id="Vector_14" d="M44.7172 39.156C44.7115 39.2542 44.7043 39.3521 44.6952 39.4497C44.6907 39.4992 44.6861 39.5494 44.6808 39.5986C44.6774 39.6293 44.6748 39.6601 44.6706 39.6908C44.66 39.785 44.6483 39.8773 44.6343 39.9703C44.6301 39.9984 44.6259 40.0254 44.6218 40.0539C44.6006 40.189 44.5767 40.324 44.5498 40.4571C44.5214 40.5989 44.49 40.7396 44.4552 40.8791C44.4431 40.929 44.4302 40.9778 44.4173 41.0265C44.4098 41.0562 44.4014 41.0858 44.3931 41.1154C44.3609 41.234 44.3257 41.3506 44.2882 41.4669C44.1989 41.7486 44.0959 42.0239 43.9804 42.2928C43.9532 42.3577 43.9244 42.4222 43.8953 42.486C43.6321 43.0621 43.3137 43.6049 42.9465 44.106C42.8662 44.2144 42.7845 44.3209 42.7015 44.4245C42.6565 44.4811 42.6103 44.5355 42.5645 44.5914C42.4869 44.6822 42.4089 44.7711 42.3282 44.8592C42.1321 45.0745 41.9254 45.2786 41.71 45.4721C41.6089 45.5621 41.5067 45.6495 41.4026 45.735C40.9759 46.0835 40.5189 46.3903 40.0355 46.6495C39.6713 46.8461 39.2923 47.0141 38.9004 47.154C38.8145 47.1848 38.7282 47.214 38.6419 47.241C38.5801 47.2609 38.5184 47.28 38.4564 47.2973C38.423 47.3074 38.389 47.3179 38.3549 47.3269C38.3235 47.3355 38.2917 47.3442 38.2602 47.3521C38.1595 47.3794 38.0588 47.4049 37.957 47.4274C37.3527 47.5636 36.7273 47.6307 36.0863 47.6232C35.9455 47.6214 35.8062 47.6161 35.6672 47.6071C34.104 47.507 32.6521 46.9593 31.4258 46.0858C29.1156 44.4406 27.6009 41.6398 27.6353 38.4947L27.6588 36.3604L27.7281 30.0837L27.7493 28.1205L27.7788 25.4112C27.7807 25.2623 27.7856 25.1137 27.7944 24.9671C27.7985 24.8947 27.8034 24.8212 27.8095 24.7491C27.8137 24.691 27.8186 24.6344 27.8254 24.5773C27.8303 24.52 27.8371 24.4618 27.8447 24.4048C27.8455 24.3906 27.847 24.3767 27.8496 24.3635C27.8534 24.3283 27.858 24.293 27.8633 24.2582C27.8682 24.2158 27.8739 24.1745 27.8807 24.1325C27.8837 24.107 27.8879 24.0815 27.8917 24.056C27.9011 23.9945 27.9113 23.9333 27.9223 23.8718C27.931 23.82 27.9409 23.7683 27.9515 23.7169C27.9564 23.6861 27.9624 23.6565 27.9693 23.6257C27.9931 23.5057 28.02 23.3879 28.0495 23.2702C28.065 23.2038 28.0825 23.1366 28.1003 23.0714C28.1165 23.0102 28.1332 22.9502 28.151 22.8894C28.168 22.8302 28.1862 22.7713 28.204 22.712C28.2047 22.7102 28.2051 22.7086 28.2059 22.7068C28.2244 22.6475 28.2437 22.5894 28.2631 22.5305C28.2831 22.4716 28.3036 22.4123 28.3244 22.3534C28.3452 22.2953 28.3672 22.2364 28.3891 22.1787C28.4338 22.0605 28.4815 21.9442 28.5311 21.8287C28.5406 21.8066 28.5508 21.7848 28.5602 21.7631C28.6019 21.6682 28.6447 21.5736 28.689 21.4806C28.6992 21.4589 28.7098 21.4375 28.7204 21.4157C28.7673 21.3197 28.8158 21.2244 28.8658 21.1303C28.8737 21.1153 28.8817 21.1006 28.8896 21.0856C30.3786 18.3179 33.2128 16.4537 36.4271 16.4927C40.0419 16.5369 43.1263 18.9754 44.3329 22.3561C44.6964 23.3722 44.8898 24.4734 44.877 25.6205L44.7342 38.7036C44.7312 38.8555 44.7255 39.0059 44.7172 39.156Z" fill="#F3725F"/>
</g>
</g>
<g id="Clip path group_8">
<mask id="mask7_257_1153" style="mask-type:luminance" maskUnits="userSpaceOnUse" x="0" y="0" width="71" height="70">
<g id="SVGID_00000131342885949771325530000013949556083474652347__8">
<path id="Vector_15" d="M35.0508 70C54.3807 70 70.0508 54.33 70.0508 35C70.0508 15.67 54.3807 0 35.0508 0C15.7208 0 0.0507812 15.67 0.0507812 35C0.0507812 54.33 15.7208 70 35.0508 70Z" fill="white"/>
</g>
</mask>
<g mask="url(#mask7_257_1153)">
<path id="Vector_16" d="M22.9846 33.1658C22.9638 35.0851 24.4206 36.6586 26.239 36.6807C28.0574 36.7029 29.5483 35.165 29.5691 33.2457C29.5899 31.3263 28.1331 29.7528 26.3147 29.7307C24.4967 29.7089 23.0058 31.2468 22.9846 33.1658Z" fill="#F3725F"/>
</g>
</g>
<g id="Clip path group_9">
<mask id="mask8_257_1153" style="mask-type:luminance" maskUnits="userSpaceOnUse" x="0" y="0" width="71" height="70">
<g id="SVGID_00000131342885949771325530000013949556083474652347__9">
<path id="Vector_17" d="M35.0508 70C54.3807 70 70.0508 54.33 70.0508 35C70.0508 15.67 54.3807 0 35.0508 0C15.7208 0 0.0507812 15.67 0.0507812 35C0.0507812 54.33 15.7208 70 35.0508 70Z" fill="white"/>
</g>
</mask>
<g mask="url(#mask8_257_1153)">
<path id="Vector_18" d="M36.3906 34.1864L36.4838 36.015H37.8804L36.7628 37.6511" stroke="#472A1C" stroke-width="0.9873" stroke-miterlimit="10" stroke-linecap="round" stroke-linejoin="round"/>
</g>
</g>
<g id="Clip path group_10">
<mask id="mask9_257_1153" style="mask-type:luminance" maskUnits="userSpaceOnUse" x="0" y="0" width="71" height="70">
<g id="SVGID_00000131342885949771325530000013949556083474652347__10">
<path id="Vector_19" d="M35.0508 70C54.3807 70 70.0508 54.33 70.0508 35C70.0508 15.67 54.3807 0 35.0508 0C15.7208 0 0.0507812 15.67 0.0507812 35C0.0507812 54.33 15.7208 70 35.0508 70Z" fill="white"/>
</g>
</mask>
<g mask="url(#mask9_257_1153)">
<g id="Group_3">
<path id="Vector_20" d="M29.2795 33.5747C29.2958 34.0612 30.1427 34.4479 31.3224 34.5706C31.6681 34.6066 32.0433 34.6201 32.4348 34.6066C32.8947 34.5908 33.3309 34.539 33.722 34.4595C34.7942 34.2427 35.5301 33.8189 35.515 33.3583C35.501 32.9288 34.84 32.5785 33.8742 32.4175C33.424 32.3421 32.9076 32.3084 32.3594 32.3275C31.8657 32.3444 31.4004 32.4029 30.9885 32.4914C29.9625 32.7127 29.2644 33.1265 29.2795 33.5747Z" fill="white"/>
<path id="Vector_21" d="M30.7188 33.3523C30.7188 33.8399 30.9523 34.2772 31.3222 34.5706C31.6679 34.6066 32.0431 34.6201 32.4345 34.6066C32.8945 34.5908 33.3307 34.539 33.7218 34.4595C34.0175 34.1718 34.198 33.7817 34.198 33.3526C34.198 33.0042 34.0784 32.6805 33.874 32.4175C33.4238 32.3421 32.9074 32.3084 32.3592 32.3275C31.8655 32.3444 31.4002 32.4029 30.9883 32.4914C30.8176 32.7409 30.7188 33.0364 30.7188 33.3523Z" fill="#362F36"/>
</g>
</g>
</g>
<g id="Clip path group_11">
<mask id="mask10_257_1153" style="mask-type:luminance" maskUnits="userSpaceOnUse" x="0" y="0" width="71" height="70">
<g id="SVGID_00000131342885949771325530000013949556083474652347__11">
<path id="Vector_22" d="M35.0508 70C54.3807 70 70.0508 54.33 70.0508 35C70.0508 15.67 54.3807 0 35.0508 0C15.7208 0 0.0507812 15.67 0.0507812 35C0.0507812 54.33 15.7208 70 35.0508 70Z" fill="white"/>
</g>
</mask>
<g mask="url(#mask10_257_1153)">
<g id="Group_4">
<path id="Vector_23" d="M37.4592 33.2506C37.4755 33.7371 38.3224 34.1238 39.5021 34.2461C39.8478 34.2821 40.223 34.2956 40.6144 34.2821C41.0744 34.2664 41.5106 34.2146 41.9017 34.1347C42.9738 33.9179 43.7098 33.494 43.6947 33.0334C43.6807 32.6043 43.0197 32.2536 42.0539 32.0927C41.6037 32.0173 41.0873 31.9839 40.5391 32.0027C40.0454 32.0196 39.5801 32.0781 39.1682 32.1666C38.1422 32.3886 37.4441 32.8024 37.4592 33.2506Z" fill="white"/>
<path id="Vector_24" d="M38.8984 33.0283C38.8984 33.516 39.132 33.9533 39.5019 34.2466C39.8476 34.2827 40.2228 34.2961 40.6142 34.2826C41.0742 34.2669 41.5104 34.2151 41.9015 34.1352C42.1971 33.8476 42.3777 33.4575 42.3777 33.0283C42.3777 32.6799 42.2581 32.3562 42.0537 32.0933C41.6035 32.0179 41.0871 31.9845 40.5389 32.0032C40.0452 32.0201 39.5799 32.0786 39.168 32.1671C38.9973 32.417 38.8984 32.7125 38.8984 33.0283Z" fill="#362F36"/>
</g>
</g>
</g>
<g id="Clip path group_12">
<mask id="mask11_257_1153" style="mask-type:luminance" maskUnits="userSpaceOnUse" x="0" y="0" width="71" height="70">
<g id="SVGID_00000131342885949771325530000013949556083474652347__12">
<path id="Vector_25" d="M35.0508 70C54.3807 70 70.0508 54.33 70.0508 35C70.0508 15.67 54.3807 0 35.0508 0C15.7208 0 0.0507812 15.67 0.0507812 35C0.0507812 54.33 15.7208 70 35.0508 70Z" fill="white"/>
</g>
</mask>
<g mask="url(#mask11_257_1153)">
<path id="Vector_26" d="M34.2305 39.0153C34.2869 40.2572 35.3178 41.2475 36.5853 41.2475C37.8525 41.2475 38.8834 40.2572 38.9402 39.0153H34.2305Z" fill="white"/>
</g>
</g>
</g>
<path id="Vector_27" d="M29.9023 30.4388C30.6508 29.0281 32.08 27.9914 33.6633 27.7108" stroke="#472A1C" stroke-width="0.9873" stroke-miterlimit="10" stroke-linecap="round" stroke-linejoin="round"/>
<path id="Vector_28" d="M42.7356 30.3016C41.9871 28.8909 40.5579 27.8542 38.9746 27.5736" stroke="#472A1C" stroke-width="0.9873" stroke-miterlimit="10" stroke-linecap="round" stroke-linejoin="round"/>
<path id="Vector_29" d="M26.3378 18.8377C24.9862 19.8081 24.4164 21.544 24.2926 23.1933C24.0181 26.8444 25.64 30.5859 28.5018 32.9025C28.0759 29.9944 28.1865 26.6392 28.606 23.7304C30.6651 26.6554 33.4849 29.1767 36.9737 30.0556C40.4624 30.934 44.5354 29.9535 46.7392 27.1336C46.2178 27.856 45.3819 28.2491 44.8606 28.9715V34.0386C47.9238 31.6939 49.8327 27.91 49.5737 24.0834C49.3147 20.2567 47.0299 16.6213 43.6778 14.7028C40.3261 12.7842 36.0056 12.6386 32.5301 14.3277C32.7868 11.8326 34.9236 9.50626 37.3663 8.84648C35.4998 8.45338 33.5799 8.57003 31.9683 9.58203C30.3566 10.594 29.1685 12.2474 28.7305 14.0872C27.4032 13.016 25.4458 12.6705 23.8572 13.3025C22.2686 13.9346 21.081 15.4631 20.8701 17.1461C21.7814 16.4961 23.4003 15.8805 24.4236 16.3378C25.4473 16.795 26.2261 17.7305 26.3378 18.8377Z" fill="#FCD6BE"/>
<path id="Vector_30" d="M28.8971 38.6218C28.8971 39.9482 27.8117 41.0232 26.473 41.0232C25.1343 41.0232 24.0488 39.9478 24.0488 38.6218C24.0488 37.2955 25.1343 36.2202 26.473 36.2202C27.8117 36.2202 28.8971 37.2955 28.8971 38.6218Z" fill="#FCD6BE"/>
<path id="Vector_31" d="M48.5348 38.2089C48.5348 39.5352 47.4494 40.6106 46.1107 40.6106C44.772 40.6106 43.6865 39.5352 43.6865 38.2089C43.6865 36.8826 44.7716 35.8076 46.1107 35.8076C47.4498 35.8076 48.5348 36.8826 48.5348 38.2089Z" fill="#FCD6BE"/>
</g>
</svg>
