<svg width="50" height="50" viewBox="0 0 50 50" fill="none" xmlns="http://www.w3.org/2000/svg">
<g id="reksoft-1 1">
<g clip-path="url(#clip0_363_1549)">
<g id="Group">
<path id="Vector" fill-rule="evenodd" clip-rule="evenodd" d="M0 0H50V50H0V0Z" fill="white"/>
<path id="Vector_2" fill-rule="evenodd" clip-rule="evenodd" d="M22.5592 23.8052C21.8007 24.1564 21.416 24.8757 21.416 25.9408V25.9574C21.4217 27.5522 22.2526 28.3833 23.8639 28.3833H25.7318V27.3573H24.0258C23.1949 27.3573 22.8603 27.2787 22.838 26.4819H25.7318V25.4555H22.838C22.8603 24.6972 23.217 24.5468 24.0481 24.5468H25.7318V23.5601H23.8639C23.3457 23.5601 22.9107 23.6436 22.5592 23.8052Z" fill="black"/>
<path id="Vector_3" fill-rule="evenodd" clip-rule="evenodd" d="M20.0771 25.6293C20.9357 25.4225 21.3818 24.815 21.393 23.8057V23.7725C21.393 22.4006 20.6682 21.7874 19.1235 21.7874H15.7109V28.3841H17.0826V25.7797H18.7051L18.8055 25.9582L20.1718 28.3841H21.705L20.2721 25.9582L20.0771 25.6293ZM18.7889 24.6254H17.0826V22.9806H18.7889C19.5809 22.9806 19.9993 23.1033 20.0047 23.8057V23.8169C20.0044 24.4636 19.5863 24.6254 18.7889 24.6254ZM28.8706 25.891L30.8666 23.8055L31.1006 23.5603H29.4674L29.2496 23.8055L27.426 25.8856V21.7871H26.1384V28.3838H27.426V26.0472L29.3889 28.3838H31.1006L28.9318 25.9579L28.8706 25.891Z" fill="black"/>
<path id="Vector_4" fill-rule="evenodd" clip-rule="evenodd" d="M34.1194 25.4221H32.9814C32.5635 25.4221 32.3516 25.294 32.3516 24.9819C32.3516 24.5692 32.6636 24.5469 33.2377 24.5469H35.5074V23.5602H32.7472C32.2673 23.5602 31.894 23.638 31.6209 23.8053C31.2248 24.0396 31.0352 24.4465 31.0352 25.0377C31.0352 25.4556 31.1021 25.7516 31.2468 25.9632C31.4925 26.3254 31.9718 26.4263 32.7246 26.4263H33.8117C34.2971 26.4263 34.4978 26.5601 34.4978 26.8999C34.4978 27.2566 34.2973 27.3575 33.8117 27.3575H31.1184V28.3834H34.4309C35.1671 28.3834 35.7466 27.7699 35.7466 26.861C35.7466 26.4877 35.6573 26.1861 35.4846 25.9578C35.2179 25.6066 34.7546 25.4221 34.1194 25.4221ZM39.8626 23.8051C39.4831 23.5988 39.0261 23.4873 38.5018 23.4873C37.9613 23.4873 37.4925 23.5988 37.1081 23.8051C36.3496 24.2009 35.9206 24.9594 35.9206 25.9407V25.9573C35.9261 27.4685 36.9076 28.489 38.5018 28.489C40.0523 28.489 41.0224 27.4685 41.0278 25.9573V25.9407C41.0278 24.9596 40.6037 24.2012 39.8626 23.8051ZM38.485 27.4187C37.7382 27.4187 37.2474 26.9054 37.2417 25.9575V25.9409C37.2417 25.0266 37.7327 24.4969 38.485 24.4969C39.2266 24.4969 39.7119 25.0266 39.7119 25.9409V25.9575C39.706 26.9056 39.2212 27.4187 38.485 27.4187Z" fill="black"/>
<path id="Vector_5" fill-rule="evenodd" clip-rule="evenodd" d="M15.3327 28.3611H1.05273L8.36275 17.6382L15.3327 28.3611Z" fill="#CC2229"/>
<path id="Vector_6" fill-rule="evenodd" clip-rule="evenodd" d="M1.06836 28.3615L12.3764 27.1517L15.3429 28.3615H1.06836ZM46.1445 23.5603V21.7871H44.8566V23.5603H42.9999V23.1699C42.9999 22.8353 43.1949 22.7292 43.6133 22.7292H44.2102V21.7871H42.9999C41.9571 21.7871 41.6954 22.066 41.6954 23.0696V23.5603H40.7753V24.497H41.6954V28.3838H42.9999V24.497H44.8566V26.8611C44.8566 27.8536 45.3977 28.3835 46.3178 28.3835H47.4887V27.4188H46.9647C46.3178 27.4188 46.1445 27.1286 46.1445 26.4318V24.4968H47.4887V23.5601H46.1445V23.5603Z" fill="black"/>
</g>
</g>
</g>
<defs>
<clipPath id="clip0_363_1549">
<rect width="50" height="50" rx="10" fill="white"/>
</clipPath>
</defs>
</svg>
